<?xml version="1.0" encoding="UTF-8" standalone="no"?>
<!DOCTYPE svg PUBLIC "-//W3C//DTD SVG 1.1//EN"
 "http://www.w3.org/Graphics/SVG/1.1/DTD/svg11.dtd">
<!-- Generated by graphviz version 2.26.0 (20091210.2329)
 -->
<!-- Title: G Pages: 1 -->
<svg width="232pt" height="338pt"
 viewBox="0.00 0.00 232.00 338.00" xmlns="http://www.w3.org/2000/svg" xmlns:xlink="http://www.w3.org/1999/xlink">
<g id="graph1" class="graph" transform="scale(1 1) rotate(0) translate(4 334)">
<title>G</title>
<polygon fill="white" stroke="white" points="-4,5 -4,-334 229,-334 229,5 -4,5"/>
<!-- node_4 -->
<g id="node1" class="node"><title>node_4</title>
<ellipse fill="none" stroke="black" cx="113" cy="-287" rx="34.1461" ry="42.4264"/>
<text text-anchor="middle" x="113" y="-304.9" font-family="Times Roman,serif" font-size="9.00">fs &#45;ls</text>
<text text-anchor="middle" x="113" y="-291.9" font-family="Times Roman,serif" font-size="9.00">User</text>
<text text-anchor="middle" x="113" y="-278.9" font-family="Times Roman,serif" font-size="9.00">client001</text>
<text text-anchor="middle" x="113" y="-265.9" font-family="Times Roman,serif" font-size="9.00">16.75ms</text>
</g>
<!-- node_1 -->
<g id="node2" class="node"><title>node_1</title>
<ellipse fill="none" stroke="black" cx="53" cy="-165" rx="53.033" ry="42.4264"/>
<text text-anchor="middle" x="53" y="-182.9" font-family="Times Roman,serif" font-size="9.00">RPC:getFileInfo</text>
<text text-anchor="middle" x="53" y="-169.9" font-family="Times Roman,serif" font-size="9.00">RPC Client</text>
<text text-anchor="middle" x="53" y="-156.9" font-family="Times Roman,serif" font-size="9.00">client001</text>
<text text-anchor="middle" x="53" y="-143.9" font-family="Times Roman,serif" font-size="9.00">2.44ms</text>
</g>
<!-- node_4&#45;&gt;node_1 -->
<g id="edge6" class="edge"><title>node_4&#45;&gt;node_1</title>
<path fill="none" stroke="black" d="M95.1605,-250.726C89.4899,-239.196 83.1216,-226.247 77.0859,-213.975"/>
<polygon fill="black" stroke="black" points="80.1062,-212.185 72.5522,-204.756 73.8247,-215.274 80.1062,-212.185"/>
</g>
<!-- node_3 -->
<g id="node5" class="node"><title>node_3</title>
<ellipse fill="none" stroke="black" cx="174" cy="-165" rx="50.2046" ry="42.4264"/>
<text text-anchor="middle" x="174" y="-182.9" font-family="Times Roman,serif" font-size="9.00">RPC:getListing</text>
<text text-anchor="middle" x="174" y="-169.9" font-family="Times Roman,serif" font-size="9.00">RPC Client</text>
<text text-anchor="middle" x="174" y="-156.9" font-family="Times Roman,serif" font-size="9.00">client001</text>
<text text-anchor="middle" x="174" y="-143.9" font-family="Times Roman,serif" font-size="9.00">1.59ms</text>
</g>
<!-- node_4&#45;&gt;node_3 -->
<g id="edge8" class="edge"><title>node_4&#45;&gt;node_3</title>
<path fill="none" stroke="black" d="M131.137,-250.726C136.958,-239.084 143.502,-225.996 149.691,-213.617"/>
<polygon fill="black" stroke="black" points="152.995,-214.835 154.337,-204.326 146.734,-211.705 152.995,-214.835"/>
</g>
<!-- node_0 -->
<g id="node3" class="node"><title>node_0</title>
<ellipse fill="none" stroke="black" cx="53" cy="-43" rx="39.0967" ry="42.4264"/>
<text text-anchor="middle" x="53" y="-60.9" font-family="Times Roman,serif" font-size="9.00">getFileInfo</text>
<text text-anchor="middle" x="53" y="-47.9" font-family="Times Roman,serif" font-size="9.00">Namenode</text>
<text text-anchor="middle" x="53" y="-34.9" font-family="Times Roman,serif" font-size="9.00">namenode</text>
<text text-anchor="middle" x="53" y="-21.9" font-family="Times Roman,serif" font-size="9.00">0.15ms</text>
</g>
<!-- node_1&#45;&gt;node_0 -->
<g id="edge2" class="edge"><title>node_1&#45;&gt;node_0</title>
<path fill="none" stroke="black" d="M53,-122.33C53,-113.836 53,-104.818 53,-96.0255"/>
<polygon fill="black" stroke="black" points="56.5001,-95.8518 53,-85.8518 49.5001,-95.8518 56.5001,-95.8518"/>
</g>
<!-- node_2 -->
<g id="node6" class="node"><title>node_2</title>
<ellipse fill="none" stroke="black" cx="174" cy="-43" rx="38.8909" ry="42.4264"/>
<text text-anchor="middle" x="174" y="-60.9" font-family="Times Roman,serif" font-size="9.00">getListing</text>
<text text-anchor="middle" x="174" y="-47.9" font-family="Times Roman,serif" font-size="9.00">Namenode</text>
<text text-anchor="middle" x="174" y="-34.9" font-family="Times Roman,serif" font-size="9.00">namenode</text>
<text text-anchor="middle" x="174" y="-21.9" font-family="Times Roman,serif" font-size="9.00">0.12ms</text>
</g>
<!-- node_3&#45;&gt;node_2 -->
<g id="edge4" class="edge"><title>node_3&#45;&gt;node_2</title>
<path fill="none" stroke="black" d="M174,-122.33C174,-113.836 174,-104.818 174,-96.0255"/>
<polygon fill="black" stroke="black" points="177.5,-95.8518 174,-85.8518 170.5,-95.8518 177.5,-95.8518"/>
</g>
</g>
</svg>
