<?xml version="1.0" encoding="UTF-8" standalone="no"?>
<!DOCTYPE svg PUBLIC "-//W3C//DTD SVG 1.1//EN"
 "http://www.w3.org/Graphics/SVG/1.1/DTD/svg11.dtd">
<!-- Generated by graphviz version 2.26.0 (20091210.2329)
 -->
<!-- Title: G Pages: 1 -->
<svg width="685pt" height="1314pt"
 viewBox="0.00 0.00 685.00 1314.00" xmlns="http://www.w3.org/2000/svg" xmlns:xlink="http://www.w3.org/1999/xlink">
<g id="graph1" class="graph" transform="scale(1 1) rotate(0) translate(4 1310)">
<title>G</title>
<polygon fill="white" stroke="white" points="-4,5 -4,-1310 682,-1310 682,5 -4,5"/>
<!-- node_22 -->
<g id="node1" class="node"><title>node_22</title>
<ellipse fill="none" stroke="black" cx="310" cy="-1263" rx="60.1041" ry="42.4264"/>
<text text-anchor="middle" x="310" y="-1280.9" font-family="Times Roman,serif" font-size="9.00">fs &#45;copyFromLocal</text>
<text text-anchor="middle" x="310" y="-1267.9" font-family="Times Roman,serif" font-size="9.00">User</text>
<text text-anchor="middle" x="310" y="-1254.9" font-family="Times Roman,serif" font-size="9.00">client001</text>
<text text-anchor="middle" x="310" y="-1241.9" font-family="Times Roman,serif" font-size="9.00">1101.22ms</text>
</g>
<!-- node_1 -->
<g id="node2" class="node"><title>node_1</title>
<ellipse fill="none" stroke="black" cx="53" cy="-1141" rx="53.033" ry="42.4264"/>
<text text-anchor="middle" x="53" y="-1158.9" font-family="Times Roman,serif" font-size="9.00">RPC:getFileInfo</text>
<text text-anchor="middle" x="53" y="-1145.9" font-family="Times Roman,serif" font-size="9.00">RPC Client</text>
<text text-anchor="middle" x="53" y="-1132.9" font-family="Times Roman,serif" font-size="9.00">client001</text>
<text text-anchor="middle" x="53" y="-1119.9" font-family="Times Roman,serif" font-size="9.00">2.75ms</text>
</g>
<!-- node_22&#45;&gt;node_1 -->
<g id="edge36" class="edge"><title>node_22&#45;&gt;node_1</title>
<path fill="none" stroke="black" d="M256.438,-1243.64C217.731,-1228.96 164.625,-1207.36 120,-1184 114.077,-1180.9 107.999,-1177.43 102.038,-1173.85"/>
<polygon fill="black" stroke="black" points="103.77,-1170.81 93.4183,-1168.56 100.105,-1176.77 103.77,-1170.81"/>
</g>
<!-- node_3 -->
<g id="node5" class="node"><title>node_3</title>
<ellipse fill="none" stroke="black" cx="169" cy="-1141" rx="39.8075" ry="42.4264"/>
<text text-anchor="middle" x="169" y="-1158.9" font-family="Times Roman,serif" font-size="9.00">RPC:create</text>
<text text-anchor="middle" x="169" y="-1145.9" font-family="Times Roman,serif" font-size="9.00">RPC Client</text>
<text text-anchor="middle" x="169" y="-1132.9" font-family="Times Roman,serif" font-size="9.00">client001</text>
<text text-anchor="middle" x="169" y="-1119.9" font-family="Times Roman,serif" font-size="9.00">2.50ms</text>
</g>
<!-- node_22&#45;&gt;node_3 -->
<g id="edge38" class="edge"><title>node_22&#45;&gt;node_3</title>
<path fill="none" stroke="black" d="M271.843,-1229.99C251.971,-1212.79 227.722,-1191.81 207.762,-1174.54"/>
<polygon fill="black" stroke="black" points="209.913,-1171.77 200.06,-1167.87 205.332,-1177.06 209.913,-1171.77"/>
</g>
<!-- node_12 -->
<g id="node8" class="node"><title>node_12</title>
<ellipse fill="none" stroke="black" cx="310" cy="-1141" rx="72.1249" ry="42.4264"/>
<text text-anchor="middle" x="310" y="-1158.9" font-family="Times Roman,serif" font-size="9.00">nextBlockOutputStream</text>
<text text-anchor="middle" x="310" y="-1145.9" font-family="Times Roman,serif" font-size="9.00">DFSClient</text>
<text text-anchor="middle" x="310" y="-1132.9" font-family="Times Roman,serif" font-size="9.00">client001</text>
<text text-anchor="middle" x="310" y="-1119.9" font-family="Times Roman,serif" font-size="9.00">50.55ms</text>
</g>
<!-- node_22&#45;&gt;node_12 -->
<g id="edge40" class="edge"><title>node_22&#45;&gt;node_12</title>
<path fill="none" stroke="black" d="M310,-1220.33C310,-1211.84 310,-1202.82 310,-1194.03"/>
<polygon fill="black" stroke="black" points="313.5,-1193.85 310,-1183.85 306.5,-1193.85 313.5,-1193.85"/>
</g>
<!-- node_13 -->
<g id="node31" class="node"><title>node_13</title>
<ellipse fill="none" stroke="black" cx="471" cy="-1141" rx="50.2046" ry="42.4264"/>
<text text-anchor="middle" x="471" y="-1158.9" font-family="Times Roman,serif" font-size="9.00">OP: send block</text>
<text text-anchor="middle" x="471" y="-1145.9" font-family="Times Roman,serif" font-size="9.00">DFSClient</text>
<text text-anchor="middle" x="471" y="-1132.9" font-family="Times Roman,serif" font-size="9.00">client001</text>
<text text-anchor="middle" x="471" y="-1119.9" font-family="Times Roman,serif" font-size="9.00">1007.26ms</text>
</g>
<!-- node_22&#45;&gt;node_13 -->
<g id="edge42" class="edge"><title>node_22&#45;&gt;node_13</title>
<path fill="none" stroke="black" d="M351.044,-1231.9C373.795,-1214.66 402.133,-1193.18 425.552,-1175.44"/>
<polygon fill="black" stroke="black" points="427.757,-1178.16 433.614,-1169.33 423.529,-1172.58 427.757,-1178.16"/>
</g>
<!-- node_21 -->
<g id="node38" class="node"><title>node_21</title>
<ellipse fill="none" stroke="black" cx="629" cy="-1141" rx="48.0833" ry="42.4264"/>
<text text-anchor="middle" x="629" y="-1158.9" font-family="Times Roman,serif" font-size="9.00">RPC:complete</text>
<text text-anchor="middle" x="629" y="-1145.9" font-family="Times Roman,serif" font-size="9.00">RPC Client</text>
<text text-anchor="middle" x="629" y="-1132.9" font-family="Times Roman,serif" font-size="9.00">client001</text>
<text text-anchor="middle" x="629" y="-1119.9" font-family="Times Roman,serif" font-size="9.00">1.87ms</text>
</g>
<!-- node_22&#45;&gt;node_21 -->
<g id="edge44" class="edge"><title>node_22&#45;&gt;node_21</title>
<path fill="none" stroke="black" d="M364.162,-1244.65C408.918,-1229.23 473.973,-1206.2 530,-1184 545.148,-1178 561.427,-1171.11 576.322,-1164.64"/>
<polygon fill="black" stroke="black" points="578.125,-1167.67 585.884,-1160.45 575.319,-1161.25 578.125,-1167.67"/>
</g>
<!-- node_0 -->
<g id="node3" class="node"><title>node_0</title>
<ellipse fill="none" stroke="black" cx="50" cy="-1019" rx="39.0967" ry="42.4264"/>
<text text-anchor="middle" x="50" y="-1036.9" font-family="Times Roman,serif" font-size="9.00">getFileInfo</text>
<text text-anchor="middle" x="50" y="-1023.9" font-family="Times Roman,serif" font-size="9.00">Namenode</text>
<text text-anchor="middle" x="50" y="-1010.9" font-family="Times Roman,serif" font-size="9.00">namenode</text>
<text text-anchor="middle" x="50" y="-997.9" font-family="Times Roman,serif" font-size="9.00">0.15ms</text>
</g>
<!-- node_1&#45;&gt;node_0 -->
<g id="edge2" class="edge"><title>node_1&#45;&gt;node_0</title>
<path fill="none" stroke="black" d="M51.9507,-1098.33C51.7419,-1089.84 51.5201,-1080.82 51.3039,-1072.03"/>
<polygon fill="black" stroke="black" points="54.7986,-1071.76 51.0537,-1061.85 47.8007,-1071.93 54.7986,-1071.76"/>
</g>
<!-- node_2 -->
<g id="node6" class="node"><title>node_2</title>
<ellipse fill="none" stroke="black" cx="146" cy="-1019" rx="38.8909" ry="42.4264"/>
<text text-anchor="middle" x="146" y="-1036.9" font-family="Times Roman,serif" font-size="9.00">create</text>
<text text-anchor="middle" x="146" y="-1023.9" font-family="Times Roman,serif" font-size="9.00">Namenode</text>
<text text-anchor="middle" x="146" y="-1010.9" font-family="Times Roman,serif" font-size="9.00">namenode</text>
<text text-anchor="middle" x="146" y="-997.9" font-family="Times Roman,serif" font-size="9.00">1.37ms</text>
</g>
<!-- node_3&#45;&gt;node_2 -->
<g id="edge4" class="edge"><title>node_3&#45;&gt;node_2</title>
<path fill="none" stroke="black" d="M161.085,-1099.01C159.367,-1089.9 157.531,-1080.16 155.752,-1070.73"/>
<polygon fill="black" stroke="black" points="159.144,-1069.83 153.852,-1060.65 152.265,-1071.12 159.144,-1069.83"/>
</g>
<!-- node_5 -->
<g id="node9" class="node"><title>node_5</title>
<ellipse fill="none" stroke="black" cx="252" cy="-1019" rx="48.9975" ry="42.4264"/>
<text text-anchor="middle" x="252" y="-1036.9" font-family="Times Roman,serif" font-size="9.00">RPC:addBlock</text>
<text text-anchor="middle" x="252" y="-1023.9" font-family="Times Roman,serif" font-size="9.00">RPC Client</text>
<text text-anchor="middle" x="252" y="-1010.9" font-family="Times Roman,serif" font-size="9.00">client001</text>
<text text-anchor="middle" x="252" y="-997.9" font-family="Times Roman,serif" font-size="9.00">3.84ms</text>
</g>
<!-- node_12&#45;&gt;node_5 -->
<g id="edge24" class="edge"><title>node_12&#45;&gt;node_5</title>
<path fill="none" stroke="black" d="M290.525,-1100.04C285.588,-1089.65 280.235,-1078.39 275.135,-1067.66"/>
<polygon fill="black" stroke="black" points="278.19,-1065.94 270.735,-1058.41 271.868,-1068.94 278.19,-1065.94"/>
</g>
<!-- node_11 -->
<g id="node12" class="node"><title>node_11</title>
<ellipse fill="none" stroke="black" cx="394" cy="-1019" rx="75.1594" ry="42.4264"/>
<text text-anchor="middle" x="394" y="-1036.9" font-family="Times Roman,serif" font-size="9.00">createBlockOutputStream</text>
<text text-anchor="middle" x="394" y="-1023.9" font-family="Times Roman,serif" font-size="9.00">DFSClient</text>
<text text-anchor="middle" x="394" y="-1010.9" font-family="Times Roman,serif" font-size="9.00">client001</text>
<text text-anchor="middle" x="394" y="-997.9" font-family="Times Roman,serif" font-size="9.00">46.24ms</text>
</g>
<!-- node_12&#45;&gt;node_11 -->
<g id="edge26" class="edge"><title>node_12&#45;&gt;node_11</title>
<path fill="none" stroke="black" d="M337.272,-1101.39C344.755,-1090.52 352.951,-1078.62 360.729,-1067.32"/>
<polygon fill="black" stroke="black" points="363.789,-1069.05 366.577,-1058.83 358.023,-1065.08 363.789,-1069.05"/>
</g>
<!-- node_4 -->
<g id="node10" class="node"><title>node_4</title>
<ellipse fill="none" stroke="black" cx="252" cy="-897" rx="38.8909" ry="42.4264"/>
<text text-anchor="middle" x="252" y="-914.9" font-family="Times Roman,serif" font-size="9.00">addBlock</text>
<text text-anchor="middle" x="252" y="-901.9" font-family="Times Roman,serif" font-size="9.00">Namenode</text>
<text text-anchor="middle" x="252" y="-888.9" font-family="Times Roman,serif" font-size="9.00">namenode</text>
<text text-anchor="middle" x="252" y="-875.9" font-family="Times Roman,serif" font-size="9.00">0.30ms</text>
</g>
<!-- node_5&#45;&gt;node_4 -->
<g id="edge6" class="edge"><title>node_5&#45;&gt;node_4</title>
<path fill="none" stroke="black" d="M252,-976.33C252,-967.836 252,-958.818 252,-950.025"/>
<polygon fill="black" stroke="black" points="255.5,-949.852 252,-939.852 248.5,-949.852 255.5,-949.852"/>
</g>
<!-- node_19 -->
<g id="node13" class="node"><title>node_19</title>
<ellipse fill="none" stroke="black" cx="394" cy="-897" rx="43.8406" ry="42.4264"/>
<text text-anchor="middle" x="394" y="-914.9" font-family="Times Roman,serif" font-size="9.00">writeBlock</text>
<text text-anchor="middle" x="394" y="-901.9" font-family="Times Roman,serif" font-size="9.00">Datanode</text>
<text text-anchor="middle" x="394" y="-888.9" font-family="Times Roman,serif" font-size="9.00">datanode009</text>
<text text-anchor="middle" x="394" y="-875.9" font-family="Times Roman,serif" font-size="9.00">1028.94ms</text>
</g>
<!-- node_11&#45;&gt;node_19 -->
<g id="edge22" class="edge"><title>node_11&#45;&gt;node_19</title>
<path fill="none" stroke="black" d="M394,-976.33C394,-967.836 394,-958.818 394,-950.025"/>
<polygon fill="black" stroke="black" points="397.5,-949.852 394,-939.852 390.5,-949.852 397.5,-949.852"/>
</g>
<!-- node_10 -->
<g id="node14" class="node"><title>node_10</title>
<ellipse fill="none" stroke="black" cx="394" cy="-775" rx="72.1249" ry="42.4264"/>
<text text-anchor="middle" x="394" y="-792.9" font-family="Times Roman,serif" font-size="9.00">OP: new BlockReceiver</text>
<text text-anchor="middle" x="394" y="-779.9" font-family="Times Roman,serif" font-size="9.00">Datanode</text>
<text text-anchor="middle" x="394" y="-766.9" font-family="Times Roman,serif" font-size="9.00">datanode009</text>
<text text-anchor="middle" x="394" y="-753.9" font-family="Times Roman,serif" font-size="9.00">11.96ms</text>
</g>
<!-- node_19&#45;&gt;node_10 -->
<g id="edge20" class="edge"><title>node_19&#45;&gt;node_10</title>
<path fill="none" stroke="black" d="M394,-854.33C394,-845.836 394,-836.818 394,-828.025"/>
<polygon fill="black" stroke="black" points="397.5,-827.852 394,-817.852 390.5,-827.852 397.5,-827.852"/>
</g>
<!-- node_9 -->
<g id="node15" class="node"><title>node_9</title>
<ellipse fill="none" stroke="black" cx="394" cy="-653" rx="79.9031" ry="42.4264"/>
<text text-anchor="middle" x="394" y="-670.9" font-family="Times Roman,serif" font-size="9.00">OP: connect next Datanode</text>
<text text-anchor="middle" x="394" y="-657.9" font-family="Times Roman,serif" font-size="9.00">Datanode</text>
<text text-anchor="middle" x="394" y="-644.9" font-family="Times Roman,serif" font-size="9.00">datanode009</text>
<text text-anchor="middle" x="394" y="-631.9" font-family="Times Roman,serif" font-size="9.00">11.33ms</text>
</g>
<!-- node_10&#45;&gt;node_9 -->
<g id="edge18" class="edge"><title>node_10&#45;&gt;node_9</title>
<path fill="none" stroke="black" d="M394,-732.33C394,-723.836 394,-714.818 394,-706.025"/>
<polygon fill="black" stroke="black" points="397.5,-705.852 394,-695.852 390.5,-705.852 397.5,-705.852"/>
</g>
<!-- node_17 -->
<g id="node16" class="node"><title>node_17</title>
<ellipse fill="none" stroke="black" cx="394" cy="-531" rx="43.8406" ry="42.4264"/>
<text text-anchor="middle" x="394" y="-548.9" font-family="Times Roman,serif" font-size="9.00">writeBlock</text>
<text text-anchor="middle" x="394" y="-535.9" font-family="Times Roman,serif" font-size="9.00">Datanode</text>
<text text-anchor="middle" x="394" y="-522.9" font-family="Times Roman,serif" font-size="9.00">datanode049</text>
<text text-anchor="middle" x="394" y="-509.9" font-family="Times Roman,serif" font-size="9.00">1022.53ms</text>
</g>
<!-- node_9&#45;&gt;node_17 -->
<g id="edge16" class="edge"><title>node_9&#45;&gt;node_17</title>
<path fill="none" stroke="black" d="M394,-610.33C394,-601.836 394,-592.818 394,-584.025"/>
<polygon fill="black" stroke="black" points="397.5,-583.852 394,-573.852 390.5,-583.852 397.5,-583.852"/>
</g>
<!-- node_8 -->
<g id="node17" class="node"><title>node_8</title>
<ellipse fill="none" stroke="black" cx="394" cy="-409" rx="72.1249" ry="42.4264"/>
<text text-anchor="middle" x="394" y="-426.9" font-family="Times Roman,serif" font-size="9.00">OP: new BlockReceiver</text>
<text text-anchor="middle" x="394" y="-413.9" font-family="Times Roman,serif" font-size="9.00">Datanode</text>
<text text-anchor="middle" x="394" y="-400.9" font-family="Times Roman,serif" font-size="9.00">datanode049</text>
<text text-anchor="middle" x="394" y="-387.9" font-family="Times Roman,serif" font-size="9.00">6.73ms</text>
</g>
<!-- node_17&#45;&gt;node_8 -->
<g id="edge14" class="edge"><title>node_17&#45;&gt;node_8</title>
<path fill="none" stroke="black" d="M394,-488.33C394,-479.836 394,-470.818 394,-462.025"/>
<polygon fill="black" stroke="black" points="397.5,-461.852 394,-451.852 390.5,-461.852 397.5,-461.852"/>
</g>
<!-- node_7 -->
<g id="node18" class="node"><title>node_7</title>
<ellipse fill="none" stroke="black" cx="394" cy="-287" rx="79.9031" ry="42.4264"/>
<text text-anchor="middle" x="394" y="-304.9" font-family="Times Roman,serif" font-size="9.00">OP: connect next Datanode</text>
<text text-anchor="middle" x="394" y="-291.9" font-family="Times Roman,serif" font-size="9.00">Datanode</text>
<text text-anchor="middle" x="394" y="-278.9" font-family="Times Roman,serif" font-size="9.00">datanode049</text>
<text text-anchor="middle" x="394" y="-265.9" font-family="Times Roman,serif" font-size="9.00">6.03ms</text>
</g>
<!-- node_8&#45;&gt;node_7 -->
<g id="edge12" class="edge"><title>node_8&#45;&gt;node_7</title>
<path fill="none" stroke="black" d="M394,-366.33C394,-357.836 394,-348.818 394,-340.025"/>
<polygon fill="black" stroke="black" points="397.5,-339.852 394,-329.852 390.5,-339.852 397.5,-339.852"/>
</g>
<!-- node_15 -->
<g id="node19" class="node"><title>node_15</title>
<ellipse fill="none" stroke="black" cx="394" cy="-165" rx="43.8406" ry="42.4264"/>
<text text-anchor="middle" x="394" y="-182.9" font-family="Times Roman,serif" font-size="9.00">writeBlock</text>
<text text-anchor="middle" x="394" y="-169.9" font-family="Times Roman,serif" font-size="9.00">Datanode</text>
<text text-anchor="middle" x="394" y="-156.9" font-family="Times Roman,serif" font-size="9.00">datanode007</text>
<text text-anchor="middle" x="394" y="-143.9" font-family="Times Roman,serif" font-size="9.00">1015.29ms</text>
</g>
<!-- node_7&#45;&gt;node_15 -->
<g id="edge10" class="edge"><title>node_7&#45;&gt;node_15</title>
<path fill="none" stroke="black" d="M394,-244.33C394,-235.836 394,-226.818 394,-218.025"/>
<polygon fill="black" stroke="black" points="397.5,-217.852 394,-207.852 390.5,-217.852 397.5,-217.852"/>
</g>
<!-- node_6 -->
<g id="node20" class="node"><title>node_6</title>
<ellipse fill="none" stroke="black" cx="394" cy="-43" rx="72.1249" ry="42.4264"/>
<text text-anchor="middle" x="394" y="-60.9" font-family="Times Roman,serif" font-size="9.00">OP: new BlockReceiver</text>
<text text-anchor="middle" x="394" y="-47.9" font-family="Times Roman,serif" font-size="9.00">Datanode</text>
<text text-anchor="middle" x="394" y="-34.9" font-family="Times Roman,serif" font-size="9.00">datanode007</text>
<text text-anchor="middle" x="394" y="-21.9" font-family="Times Roman,serif" font-size="9.00">0.61ms</text>
</g>
<!-- node_15&#45;&gt;node_6 -->
<g id="edge8" class="edge"><title>node_15&#45;&gt;node_6</title>
<path fill="none" stroke="black" d="M394,-122.33C394,-113.836 394,-104.818 394,-96.0255"/>
<polygon fill="black" stroke="black" points="397.5,-95.8518 394,-85.8518 390.5,-95.8518 397.5,-95.8518"/>
</g>
<!-- node_18 -->
<g id="node32" class="node"><title>node_18</title>
<ellipse fill="none" stroke="black" cx="531" cy="-1019" rx="43.8406" ry="42.4264"/>
<text text-anchor="middle" x="531" y="-1036.9" font-family="Times Roman,serif" font-size="9.00">receiveBlock</text>
<text text-anchor="middle" x="531" y="-1023.9" font-family="Times Roman,serif" font-size="9.00">Datanode</text>
<text text-anchor="middle" x="531" y="-1010.9" font-family="Times Roman,serif" font-size="9.00">datanode009</text>
<text text-anchor="middle" x="531" y="-997.9" font-family="Times Roman,serif" font-size="9.00">1014.49ms</text>
</g>
<!-- node_13&#45;&gt;node_18 -->
<g id="edge32" class="edge"><title>node_13&#45;&gt;node_18</title>
<path fill="none" stroke="black" d="M490.315,-1101.73C495.775,-1090.62 501.779,-1078.42 507.458,-1066.87"/>
<polygon fill="black" stroke="black" points="510.654,-1068.3 511.927,-1057.78 504.373,-1065.21 510.654,-1068.3"/>
</g>
<!-- node_16 -->
<g id="node33" class="node"><title>node_16</title>
<ellipse fill="none" stroke="black" cx="531" cy="-897" rx="43.8406" ry="42.4264"/>
<text text-anchor="middle" x="531" y="-914.9" font-family="Times Roman,serif" font-size="9.00">receiveBlock</text>
<text text-anchor="middle" x="531" y="-901.9" font-family="Times Roman,serif" font-size="9.00">Datanode</text>
<text text-anchor="middle" x="531" y="-888.9" font-family="Times Roman,serif" font-size="9.00">datanode049</text>
<text text-anchor="middle" x="531" y="-875.9" font-family="Times Roman,serif" font-size="9.00">1011.83ms</text>
</g>
<!-- node_18&#45;&gt;node_16 -->
<g id="edge30" class="edge"><title>node_18&#45;&gt;node_16</title>
<path fill="none" stroke="black" d="M531,-976.33C531,-967.836 531,-958.818 531,-950.025"/>
<polygon fill="black" stroke="black" points="534.5,-949.852 531,-939.852 527.5,-949.852 534.5,-949.852"/>
</g>
<!-- node_14 -->
<g id="node34" class="node"><title>node_14</title>
<ellipse fill="none" stroke="black" cx="531" cy="-775" rx="43.8406" ry="42.4264"/>
<text text-anchor="middle" x="531" y="-792.9" font-family="Times Roman,serif" font-size="9.00">receiveBlock</text>
<text text-anchor="middle" x="531" y="-779.9" font-family="Times Roman,serif" font-size="9.00">Datanode</text>
<text text-anchor="middle" x="531" y="-766.9" font-family="Times Roman,serif" font-size="9.00">datanode007</text>
<text text-anchor="middle" x="531" y="-753.9" font-family="Times Roman,serif" font-size="9.00">1009.37ms</text>
</g>
<!-- node_16&#45;&gt;node_14 -->
<g id="edge28" class="edge"><title>node_16&#45;&gt;node_14</title>
<path fill="none" stroke="black" d="M531,-854.33C531,-845.836 531,-836.818 531,-828.025"/>
<polygon fill="black" stroke="black" points="534.5,-827.852 531,-817.852 527.5,-827.852 534.5,-827.852"/>
</g>
<!-- node_20 -->
<g id="node39" class="node"><title>node_20</title>
<ellipse fill="none" stroke="black" cx="632" cy="-1019" rx="38.8909" ry="42.4264"/>
<text text-anchor="middle" x="632" y="-1036.9" font-family="Times Roman,serif" font-size="9.00">complete</text>
<text text-anchor="middle" x="632" y="-1023.9" font-family="Times Roman,serif" font-size="9.00">Namenode</text>
<text text-anchor="middle" x="632" y="-1010.9" font-family="Times Roman,serif" font-size="9.00">namenode</text>
<text text-anchor="middle" x="632" y="-997.9" font-family="Times Roman,serif" font-size="9.00">1.13ms</text>
</g>
<!-- node_21&#45;&gt;node_20 -->
<g id="edge34" class="edge"><title>node_21&#45;&gt;node_20</title>
<path fill="none" stroke="black" d="M630.049,-1098.33C630.258,-1089.84 630.48,-1080.82 630.696,-1072.03"/>
<polygon fill="black" stroke="black" points="634.199,-1071.93 630.946,-1061.85 627.201,-1071.76 634.199,-1071.93"/>
</g>
</g>
</svg>
