<?xml version="1.0" encoding="UTF-8" standalone="no"?>
<!DOCTYPE svg PUBLIC "-//W3C//DTD SVG 1.1//EN"
 "http://www.w3.org/Graphics/SVG/1.1/DTD/svg11.dtd">
<!-- Generated by graphviz version 2.26.0 (20091210.2329)
 -->
<!-- Title: G Pages: 1 -->
<svg width="1404pt" height="826pt"
 viewBox="0.00 0.00 1404.00 826.00" xmlns="http://www.w3.org/2000/svg" xmlns:xlink="http://www.w3.org/1999/xlink">
<g id="graph1" class="graph" transform="scale(1 1) rotate(0) translate(4 822)">
<title>G</title>
<polygon fill="white" stroke="white" points="-4,5 -4,-822 1401,-822 1401,5 -4,5"/>
<!-- node_30 -->
<g id="node1" class="node"><title>node_30</title>
<ellipse fill="none" stroke="black" cx="568" cy="-775" rx="53.033" ry="42.4264"/>
<text text-anchor="middle" x="568" y="-792.9" font-family="Times Roman,serif" font-size="9.00">fs &#45;copyToLocal</text>
<text text-anchor="middle" x="568" y="-779.9" font-family="Times Roman,serif" font-size="9.00">User</text>
<text text-anchor="middle" x="568" y="-766.9" font-family="Times Roman,serif" font-size="9.00">client007</text>
<text text-anchor="middle" x="568" y="-753.9" font-family="Times Roman,serif" font-size="9.00">34342.16ms</text>
</g>
<!-- node_1 -->
<g id="node2" class="node"><title>node_1</title>
<ellipse fill="none" stroke="black" cx="53" cy="-653" rx="53.033" ry="42.4264"/>
<text text-anchor="middle" x="53" y="-670.9" font-family="Times Roman,serif" font-size="9.00">RPC:getFileInfo</text>
<text text-anchor="middle" x="53" y="-657.9" font-family="Times Roman,serif" font-size="9.00">RPC Client</text>
<text text-anchor="middle" x="53" y="-644.9" font-family="Times Roman,serif" font-size="9.00">client007</text>
<text text-anchor="middle" x="53" y="-631.9" font-family="Times Roman,serif" font-size="9.00">103.28ms</text>
</g>
<!-- node_30&#45;&gt;node_1 -->
<g id="edge48" class="edge"><title>node_30&#45;&gt;node_1</title>
<path fill="none" stroke="black" d="M515.025,-773.121C428.307,-768.454 251.997,-752.236 115,-696 109.85,-693.886 104.701,-691.289 99.6947,-688.427"/>
<polygon fill="black" stroke="black" points="101.227,-685.262 90.8683,-683.037 97.579,-691.236 101.227,-685.262"/>
</g>
<!-- node_3 -->
<g id="node5" class="node"><title>node_3</title>
<ellipse fill="none" stroke="black" cx="177" cy="-653" rx="53.033" ry="42.4264"/>
<text text-anchor="middle" x="177" y="-670.9" font-family="Times Roman,serif" font-size="9.00">RPC:getFileInfo</text>
<text text-anchor="middle" x="177" y="-657.9" font-family="Times Roman,serif" font-size="9.00">RPC Client</text>
<text text-anchor="middle" x="177" y="-644.9" font-family="Times Roman,serif" font-size="9.00">client007</text>
<text text-anchor="middle" x="177" y="-631.9" font-family="Times Roman,serif" font-size="9.00">106.13ms</text>
</g>
<!-- node_30&#45;&gt;node_3 -->
<g id="edge50" class="edge"><title>node_30&#45;&gt;node_3</title>
<path fill="none" stroke="black" d="M515.345,-768.486C448.71,-758.885 331.48,-737.413 239,-696 233.919,-693.725 228.816,-691.02 223.839,-688.091"/>
<polygon fill="black" stroke="black" points="225.387,-684.932 215.047,-682.62 221.689,-690.875 225.387,-684.932"/>
</g>
<!-- node_5 -->
<g id="node8" class="node"><title>node_5</title>
<ellipse fill="none" stroke="black" cx="301" cy="-653" rx="53.033" ry="42.4264"/>
<text text-anchor="middle" x="301" y="-670.9" font-family="Times Roman,serif" font-size="9.00">RPC:getFileInfo</text>
<text text-anchor="middle" x="301" y="-657.9" font-family="Times Roman,serif" font-size="9.00">RPC Client</text>
<text text-anchor="middle" x="301" y="-644.9" font-family="Times Roman,serif" font-size="9.00">client007</text>
<text text-anchor="middle" x="301" y="-631.9" font-family="Times Roman,serif" font-size="9.00">105.00ms</text>
</g>
<!-- node_30&#45;&gt;node_5 -->
<g id="edge52" class="edge"><title>node_30&#45;&gt;node_5</title>
<path fill="none" stroke="black" d="M518.516,-759.637C476.073,-745.599 413.895,-722.958 363,-696 358.153,-693.432 353.232,-690.554 348.392,-687.536"/>
<polygon fill="black" stroke="black" points="350.1,-684.473 339.801,-681.988 346.303,-690.353 350.1,-684.473"/>
</g>
<!-- node_7 -->
<g id="node11" class="node"><title>node_7</title>
<ellipse fill="none" stroke="black" cx="425" cy="-653" rx="53.033" ry="42.4264"/>
<text text-anchor="middle" x="425" y="-670.9" font-family="Times Roman,serif" font-size="9.00">RPC:getFileInfo</text>
<text text-anchor="middle" x="425" y="-657.9" font-family="Times Roman,serif" font-size="9.00">RPC Client</text>
<text text-anchor="middle" x="425" y="-644.9" font-family="Times Roman,serif" font-size="9.00">client007</text>
<text text-anchor="middle" x="425" y="-631.9" font-family="Times Roman,serif" font-size="9.00">105.65ms</text>
</g>
<!-- node_30&#45;&gt;node_7 -->
<g id="edge54" class="edge"><title>node_30&#45;&gt;node_7</title>
<path fill="none" stroke="black" d="M531.545,-743.899C512.552,-727.694 489.175,-707.751 469.162,-690.677"/>
<polygon fill="black" stroke="black" points="471.268,-687.872 461.388,-684.045 466.724,-693.198 471.268,-687.872"/>
</g>
<!-- node_9 -->
<g id="node14" class="node"><title>node_9</title>
<ellipse fill="none" stroke="black" cx="568" cy="-653" rx="72.1249" ry="42.4264"/>
<text text-anchor="middle" x="568" y="-670.9" font-family="Times Roman,serif" font-size="9.00">RPC:getBlockLocations</text>
<text text-anchor="middle" x="568" y="-657.9" font-family="Times Roman,serif" font-size="9.00">RPC Client</text>
<text text-anchor="middle" x="568" y="-644.9" font-family="Times Roman,serif" font-size="9.00">client007</text>
<text text-anchor="middle" x="568" y="-631.9" font-family="Times Roman,serif" font-size="9.00">106.84ms</text>
</g>
<!-- node_30&#45;&gt;node_9 -->
<g id="edge56" class="edge"><title>node_30&#45;&gt;node_9</title>
<path fill="none" stroke="black" d="M568,-732.33C568,-723.836 568,-714.818 568,-706.025"/>
<polygon fill="black" stroke="black" points="571.5,-705.852 568,-695.852 564.5,-705.852 571.5,-705.852"/>
</g>
<!-- node_15 -->
<g id="node17" class="node"><title>node_15</title>
<ellipse fill="none" stroke="black" cx="702" cy="-653" rx="44.0472" ry="42.4264"/>
<text text-anchor="middle" x="702" y="-670.9" font-family="Times Roman,serif" font-size="9.00">blockSeekTo</text>
<text text-anchor="middle" x="702" y="-657.9" font-family="Times Roman,serif" font-size="9.00">DFSClient</text>
<text text-anchor="middle" x="702" y="-644.9" font-family="Times Roman,serif" font-size="9.00">client007</text>
<text text-anchor="middle" x="702" y="-631.9" font-family="Times Roman,serif" font-size="9.00">338.08ms</text>
</g>
<!-- node_30&#45;&gt;node_15 -->
<g id="edge58" class="edge"><title>node_30&#45;&gt;node_15</title>
<path fill="none" stroke="black" d="M603.207,-742.946C621.255,-726.514 643.31,-706.434 661.999,-689.419"/>
<polygon fill="black" stroke="black" points="664.743,-691.654 669.781,-682.334 660.03,-686.478 664.743,-691.654"/>
</g>
<!-- node_18 -->
<g id="node34" class="node"><title>node_18</title>
<ellipse fill="none" stroke="black" cx="858" cy="-653" rx="44.0472" ry="42.4264"/>
<text text-anchor="middle" x="858" y="-670.9" font-family="Times Roman,serif" font-size="9.00">checksumOk</text>
<text text-anchor="middle" x="858" y="-657.9" font-family="Times Roman,serif" font-size="9.00">DFSClient</text>
<text text-anchor="middle" x="858" y="-644.9" font-family="Times Roman,serif" font-size="9.00">client007</text>
<text text-anchor="middle" x="858" y="-631.9" font-family="Times Roman,serif" font-size="9.00">0.36ms</text>
</g>
<!-- node_30&#45;&gt;node_18 -->
<g id="edge60" class="edge"><title>node_30&#45;&gt;node_18</title>
<path fill="none" stroke="black" d="M615.239,-755.127C668.231,-732.834 753.832,-696.822 807.947,-674.057"/>
<polygon fill="black" stroke="black" points="809.48,-677.209 817.34,-670.105 806.766,-670.757 809.48,-677.209"/>
</g>
<!-- node_26 -->
<g id="node37" class="node"><title>node_26</title>
<ellipse fill="none" stroke="black" cx="1048" cy="-653" rx="44.0472" ry="42.4264"/>
<text text-anchor="middle" x="1048" y="-670.9" font-family="Times Roman,serif" font-size="9.00">blockSeekTo</text>
<text text-anchor="middle" x="1048" y="-657.9" font-family="Times Roman,serif" font-size="9.00">DFSClient</text>
<text text-anchor="middle" x="1048" y="-644.9" font-family="Times Roman,serif" font-size="9.00">client007</text>
<text text-anchor="middle" x="1048" y="-631.9" font-family="Times Roman,serif" font-size="9.00">317.02ms</text>
</g>
<!-- node_30&#45;&gt;node_26 -->
<g id="edge62" class="edge"><title>node_30&#45;&gt;node_26</title>
<path fill="none" stroke="black" d="M619.448,-764.456C686.809,-750.353 808.391,-723.874 911,-696 939.585,-688.235 971.148,-678.415 996.767,-670.12"/>
<polygon fill="black" stroke="black" points="997.852,-673.448 1006.28,-667.023 995.684,-666.792 997.852,-673.448"/>
</g>
<!-- node_29 -->
<g id="node54" class="node"><title>node_29</title>
<ellipse fill="none" stroke="black" cx="1248" cy="-653" rx="44.0472" ry="42.4264"/>
<text text-anchor="middle" x="1248" y="-670.9" font-family="Times Roman,serif" font-size="9.00">checksumOk</text>
<text text-anchor="middle" x="1248" y="-657.9" font-family="Times Roman,serif" font-size="9.00">DFSClient</text>
<text text-anchor="middle" x="1248" y="-644.9" font-family="Times Roman,serif" font-size="9.00">client007</text>
<text text-anchor="middle" x="1248" y="-631.9" font-family="Times Roman,serif" font-size="9.00">0.26ms</text>
</g>
<!-- node_30&#45;&gt;node_29 -->
<g id="edge64" class="edge"><title>node_30&#45;&gt;node_29</title>
<path fill="none" stroke="black" d="M620.636,-769.628C716.78,-759.278 926.931,-734.17 1101,-696 1133.18,-688.944 1168.64,-678.646 1196.67,-669.897"/>
<polygon fill="black" stroke="black" points="1197.77,-673.22 1206.26,-666.875 1195.67,-666.544 1197.77,-673.22"/>
</g>
<!-- node_0 -->
<g id="node3" class="node"><title>node_0</title>
<ellipse fill="none" stroke="black" cx="53" cy="-531" rx="39.0967" ry="42.4264"/>
<text text-anchor="middle" x="53" y="-548.9" font-family="Times Roman,serif" font-size="9.00">getFileInfo</text>
<text text-anchor="middle" x="53" y="-535.9" font-family="Times Roman,serif" font-size="9.00">Namenode</text>
<text text-anchor="middle" x="53" y="-522.9" font-family="Times Roman,serif" font-size="9.00">namenode</text>
<text text-anchor="middle" x="53" y="-509.9" font-family="Times Roman,serif" font-size="9.00">0.20ms</text>
</g>
<!-- node_1&#45;&gt;node_0 -->
<g id="edge2" class="edge"><title>node_1&#45;&gt;node_0</title>
<path fill="none" stroke="black" d="M53,-610.33C53,-601.836 53,-592.818 53,-584.025"/>
<polygon fill="black" stroke="black" points="56.5001,-583.852 53,-573.852 49.5001,-583.852 56.5001,-583.852"/>
</g>
<!-- node_2 -->
<g id="node6" class="node"><title>node_2</title>
<ellipse fill="none" stroke="black" cx="177" cy="-531" rx="39.0967" ry="42.4264"/>
<text text-anchor="middle" x="177" y="-548.9" font-family="Times Roman,serif" font-size="9.00">getFileInfo</text>
<text text-anchor="middle" x="177" y="-535.9" font-family="Times Roman,serif" font-size="9.00">Namenode</text>
<text text-anchor="middle" x="177" y="-522.9" font-family="Times Roman,serif" font-size="9.00">namenode</text>
<text text-anchor="middle" x="177" y="-509.9" font-family="Times Roman,serif" font-size="9.00">0.22ms</text>
</g>
<!-- node_3&#45;&gt;node_2 -->
<g id="edge4" class="edge"><title>node_3&#45;&gt;node_2</title>
<path fill="none" stroke="black" d="M177,-610.33C177,-601.836 177,-592.818 177,-584.025"/>
<polygon fill="black" stroke="black" points="180.5,-583.852 177,-573.852 173.5,-583.852 180.5,-583.852"/>
</g>
<!-- node_4 -->
<g id="node9" class="node"><title>node_4</title>
<ellipse fill="none" stroke="black" cx="287" cy="-531" rx="39.0967" ry="42.4264"/>
<text text-anchor="middle" x="287" y="-548.9" font-family="Times Roman,serif" font-size="9.00">getFileInfo</text>
<text text-anchor="middle" x="287" y="-535.9" font-family="Times Roman,serif" font-size="9.00">Namenode</text>
<text text-anchor="middle" x="287" y="-522.9" font-family="Times Roman,serif" font-size="9.00">namenode</text>
<text text-anchor="middle" x="287" y="-509.9" font-family="Times Roman,serif" font-size="9.00">0.21ms</text>
</g>
<!-- node_5&#45;&gt;node_4 -->
<g id="edge6" class="edge"><title>node_5&#45;&gt;node_4</title>
<path fill="none" stroke="black" d="M296.143,-610.673C295.133,-601.872 294.057,-592.498 293.011,-583.385"/>
<polygon fill="black" stroke="black" points="296.466,-582.788 291.849,-573.252 289.512,-583.586 296.466,-582.788"/>
</g>
<!-- node_6 -->
<g id="node12" class="node"><title>node_6</title>
<ellipse fill="none" stroke="black" cx="383" cy="-531" rx="39.0967" ry="42.4264"/>
<text text-anchor="middle" x="383" y="-548.9" font-family="Times Roman,serif" font-size="9.00">getFileInfo</text>
<text text-anchor="middle" x="383" y="-535.9" font-family="Times Roman,serif" font-size="9.00">Namenode</text>
<text text-anchor="middle" x="383" y="-522.9" font-family="Times Roman,serif" font-size="9.00">namenode</text>
<text text-anchor="middle" x="383" y="-509.9" font-family="Times Roman,serif" font-size="9.00">0.29ms</text>
</g>
<!-- node_7&#45;&gt;node_6 -->
<g id="edge8" class="edge"><title>node_7&#45;&gt;node_6</title>
<path fill="none" stroke="black" d="M410.781,-611.696C407.354,-601.743 403.658,-591.006 400.114,-580.713"/>
<polygon fill="black" stroke="black" points="403.342,-579.337 396.778,-571.021 396.724,-581.616 403.342,-579.337"/>
</g>
<!-- node_8 -->
<g id="node15" class="node"><title>node_8</title>
<ellipse fill="none" stroke="black" cx="498" cy="-531" rx="58.1882" ry="42.4264"/>
<text text-anchor="middle" x="498" y="-548.9" font-family="Times Roman,serif" font-size="9.00">getBlockLocations</text>
<text text-anchor="middle" x="498" y="-535.9" font-family="Times Roman,serif" font-size="9.00">Namenode</text>
<text text-anchor="middle" x="498" y="-522.9" font-family="Times Roman,serif" font-size="9.00">namenode</text>
<text text-anchor="middle" x="498" y="-509.9" font-family="Times Roman,serif" font-size="9.00">0.37ms</text>
</g>
<!-- node_9&#45;&gt;node_8 -->
<g id="edge10" class="edge"><title>node_9&#45;&gt;node_8</title>
<path fill="none" stroke="black" d="M544.885,-612.715C538.726,-601.98 532.01,-590.275 525.636,-579.165"/>
<polygon fill="black" stroke="black" points="528.626,-577.344 520.614,-570.412 522.555,-580.828 528.626,-577.344"/>
</g>
<!-- node_11 -->
<g id="node18" class="node"><title>node_11</title>
<ellipse fill="none" stroke="black" cx="628" cy="-531" rx="53.9477" ry="42.4264"/>
<text text-anchor="middle" x="628" y="-548.9" font-family="Times Roman,serif" font-size="9.00">chooseDataNode</text>
<text text-anchor="middle" x="628" y="-535.9" font-family="Times Roman,serif" font-size="9.00">DFSClient</text>
<text text-anchor="middle" x="628" y="-522.9" font-family="Times Roman,serif" font-size="9.00">client007</text>
<text text-anchor="middle" x="628" y="-509.9" font-family="Times Roman,serif" font-size="9.00">0.39ms</text>
</g>
<!-- node_15&#45;&gt;node_11 -->
<g id="edge24" class="edge"><title>node_15&#45;&gt;node_11</title>
<path fill="none" stroke="black" d="M679.597,-616.065C672.338,-604.099 664.188,-590.661 656.545,-578.061"/>
<polygon fill="black" stroke="black" points="659.532,-576.236 651.353,-569.501 653.547,-579.866 659.532,-576.236"/>
</g>
<!-- node_14 -->
<g id="node21" class="node"><title>node_14</title>
<ellipse fill="none" stroke="black" cx="776" cy="-531" rx="75.8684" ry="42.4264"/>
<text text-anchor="middle" x="776" y="-548.9" font-family="Times Roman,serif" font-size="9.00">OP: try new BlockReader</text>
<text text-anchor="middle" x="776" y="-535.9" font-family="Times Roman,serif" font-size="9.00">DFSClient</text>
<text text-anchor="middle" x="776" y="-522.9" font-family="Times Roman,serif" font-size="9.00">client007</text>
<text text-anchor="middle" x="776" y="-509.9" font-family="Times Roman,serif" font-size="9.00">336.78ms</text>
</g>
<!-- node_15&#45;&gt;node_14 -->
<g id="edge26" class="edge"><title>node_15&#45;&gt;node_14</title>
<path fill="none" stroke="black" d="M724.403,-616.065C731.249,-604.778 738.89,-592.182 746.148,-580.215"/>
<polygon fill="black" stroke="black" points="749.156,-582.005 751.349,-571.64 743.171,-578.375 749.156,-582.005"/>
</g>
<!-- node_10 -->
<g id="node19" class="node"><title>node_10</title>
<ellipse fill="none" stroke="black" cx="628" cy="-409" rx="38.8909" ry="42.4264"/>
<text text-anchor="middle" x="628" y="-426.9" font-family="Times Roman,serif" font-size="9.00">bestNode</text>
<text text-anchor="middle" x="628" y="-413.9" font-family="Times Roman,serif" font-size="9.00">DFSClient</text>
<text text-anchor="middle" x="628" y="-400.9" font-family="Times Roman,serif" font-size="9.00">client007</text>
<text text-anchor="middle" x="628" y="-387.9" font-family="Times Roman,serif" font-size="9.00">0.01ms</text>
</g>
<!-- node_11&#45;&gt;node_10 -->
<g id="edge12" class="edge"><title>node_11&#45;&gt;node_10</title>
<path fill="none" stroke="black" d="M628,-488.33C628,-479.836 628,-470.818 628,-462.025"/>
<polygon fill="black" stroke="black" points="631.5,-461.852 628,-451.852 624.5,-461.852 631.5,-461.852"/>
</g>
<!-- node_13 -->
<g id="node22" class="node"><title>node_13</title>
<ellipse fill="none" stroke="black" cx="776" cy="-409" rx="53.9477" ry="42.4264"/>
<text text-anchor="middle" x="776" y="-426.9" font-family="Times Roman,serif" font-size="9.00">newBlockReader</text>
<text text-anchor="middle" x="776" y="-413.9" font-family="Times Roman,serif" font-size="9.00">DFSClient</text>
<text text-anchor="middle" x="776" y="-400.9" font-family="Times Roman,serif" font-size="9.00">client007</text>
<text text-anchor="middle" x="776" y="-387.9" font-family="Times Roman,serif" font-size="9.00">110.49ms</text>
</g>
<!-- node_14&#45;&gt;node_13 -->
<g id="edge22" class="edge"><title>node_14&#45;&gt;node_13</title>
<path fill="none" stroke="black" d="M776,-488.33C776,-479.836 776,-470.818 776,-462.025"/>
<polygon fill="black" stroke="black" points="779.5,-461.852 776,-451.852 772.5,-461.852 779.5,-461.852"/>
</g>
<!-- node_22 -->
<g id="node23" class="node"><title>node_22</title>
<ellipse fill="none" stroke="black" cx="776" cy="-287" rx="43.8406" ry="42.4264"/>
<text text-anchor="middle" x="776" y="-304.9" font-family="Times Roman,serif" font-size="9.00">readBlock</text>
<text text-anchor="middle" x="776" y="-291.9" font-family="Times Roman,serif" font-size="9.00">Datanode</text>
<text text-anchor="middle" x="776" y="-278.9" font-family="Times Roman,serif" font-size="9.00">datanode033</text>
<text text-anchor="middle" x="776" y="-265.9" font-family="Times Roman,serif" font-size="9.00">25141.59ms</text>
</g>
<!-- node_13&#45;&gt;node_22 -->
<g id="edge20" class="edge"><title>node_13&#45;&gt;node_22</title>
<path fill="none" stroke="black" d="M776,-366.33C776,-357.836 776,-348.818 776,-340.025"/>
<polygon fill="black" stroke="black" points="779.5,-339.852 776,-329.852 772.5,-339.852 779.5,-339.852"/>
</g>
<!-- node_12 -->
<g id="node24" class="node"><title>node_12</title>
<ellipse fill="none" stroke="black" cx="712" cy="-165" rx="67.1751" ry="42.4264"/>
<text text-anchor="middle" x="712" y="-182.9" font-family="Times Roman,serif" font-size="9.00">OP: new blockSender</text>
<text text-anchor="middle" x="712" y="-169.9" font-family="Times Roman,serif" font-size="9.00">Datanode</text>
<text text-anchor="middle" x="712" y="-156.9" font-family="Times Roman,serif" font-size="9.00">datanode033</text>
<text text-anchor="middle" x="712" y="-143.9" font-family="Times Roman,serif" font-size="9.00">0.88ms</text>
</g>
<!-- node_22&#45;&gt;node_12 -->
<g id="edge16" class="edge"><title>node_22&#45;&gt;node_12</title>
<path fill="none" stroke="black" d="M756.101,-249.067C750.368,-238.139 744.027,-226.052 737.984,-214.532"/>
<polygon fill="black" stroke="black" points="740.963,-212.676 733.218,-205.447 734.764,-215.928 740.963,-212.676"/>
</g>
<!-- node_16 -->
<g id="node25" class="node"><title>node_16</title>
<ellipse fill="none" stroke="black" cx="841" cy="-165" rx="43.8406" ry="42.4264"/>
<text text-anchor="middle" x="841" y="-182.9" font-family="Times Roman,serif" font-size="9.00">sendBlock</text>
<text text-anchor="middle" x="841" y="-169.9" font-family="Times Roman,serif" font-size="9.00">Datanode</text>
<text text-anchor="middle" x="841" y="-156.9" font-family="Times Roman,serif" font-size="9.00">datanode033</text>
<text text-anchor="middle" x="841" y="-143.9" font-family="Times Roman,serif" font-size="9.00">24843.89ms</text>
</g>
<!-- node_22&#45;&gt;node_16 -->
<g id="edge18" class="edge"><title>node_22&#45;&gt;node_16</title>
<path fill="none" stroke="black" d="M796.21,-249.067C802.447,-237.362 809.391,-224.328 815.915,-212.083"/>
<polygon fill="black" stroke="black" points="819.189,-213.381 820.802,-202.909 813.011,-210.089 819.189,-213.381"/>
</g>
<!-- node_17 -->
<g id="node26" class="node"><title>node_17</title>
<ellipse fill="none" stroke="black" cx="841" cy="-43" rx="56.0679" ry="42.4264"/>
<text text-anchor="middle" x="841" y="-60.9" font-family="Times Roman,serif" font-size="9.00">OP: receive block</text>
<text text-anchor="middle" x="841" y="-47.9" font-family="Times Roman,serif" font-size="9.00">DFSClient</text>
<text text-anchor="middle" x="841" y="-34.9" font-family="Times Roman,serif" font-size="9.00">client007</text>
<text text-anchor="middle" x="841" y="-21.9" font-family="Times Roman,serif" font-size="9.00">25035.86ms</text>
</g>
<!-- node_16&#45;&gt;node_17 -->
<g id="edge14" class="edge"><title>node_16&#45;&gt;node_17</title>
<path fill="none" stroke="black" d="M841,-122.33C841,-113.836 841,-104.818 841,-96.0255"/>
<polygon fill="black" stroke="black" points="844.5,-95.8518 841,-85.8518 837.5,-95.8518 844.5,-95.8518"/>
</g>
<!-- node_21 -->
<g id="node35" class="node"><title>node_21</title>
<ellipse fill="none" stroke="black" cx="923" cy="-531" rx="53.033" ry="42.4264"/>
<text text-anchor="middle" x="923" y="-548.9" font-family="Times Roman,serif" font-size="9.00">verifiedByClient</text>
<text text-anchor="middle" x="923" y="-535.9" font-family="Times Roman,serif" font-size="9.00">datanode</text>
<text text-anchor="middle" x="923" y="-522.9" font-family="Times Roman,serif" font-size="9.00">datanode033</text>
<text text-anchor="middle" x="923" y="-509.9" font-family="Times Roman,serif" font-size="9.00">0.08ms</text>
</g>
<!-- node_18&#45;&gt;node_21 -->
<g id="edge28" class="edge"><title>node_18&#45;&gt;node_21</title>
<path fill="none" stroke="black" d="M878.21,-615.067C884.268,-603.696 890.995,-591.071 897.354,-579.135"/>
<polygon fill="black" stroke="black" points="900.516,-580.645 902.129,-570.173 894.338,-577.353 900.516,-580.645"/>
</g>
<!-- node_20 -->
<g id="node38" class="node"><title>node_20</title>
<ellipse fill="none" stroke="black" cx="1048" cy="-531" rx="53.9477" ry="42.4264"/>
<text text-anchor="middle" x="1048" y="-548.9" font-family="Times Roman,serif" font-size="9.00">chooseDataNode</text>
<text text-anchor="middle" x="1048" y="-535.9" font-family="Times Roman,serif" font-size="9.00">DFSClient</text>
<text text-anchor="middle" x="1048" y="-522.9" font-family="Times Roman,serif" font-size="9.00">client007</text>
<text text-anchor="middle" x="1048" y="-509.9" font-family="Times Roman,serif" font-size="9.00">0.20ms</text>
</g>
<!-- node_26&#45;&gt;node_20 -->
<g id="edge42" class="edge"><title>node_26&#45;&gt;node_20</title>
<path fill="none" stroke="black" d="M1048,-610.33C1048,-601.836 1048,-592.818 1048,-584.025"/>
<polygon fill="black" stroke="black" points="1051.5,-583.852 1048,-573.852 1044.5,-583.852 1051.5,-583.852"/>
</g>
<!-- node_25 -->
<g id="node41" class="node"><title>node_25</title>
<ellipse fill="none" stroke="black" cx="1196" cy="-531" rx="75.8684" ry="42.4264"/>
<text text-anchor="middle" x="1196" y="-548.9" font-family="Times Roman,serif" font-size="9.00">OP: try new BlockReader</text>
<text text-anchor="middle" x="1196" y="-535.9" font-family="Times Roman,serif" font-size="9.00">DFSClient</text>
<text text-anchor="middle" x="1196" y="-522.9" font-family="Times Roman,serif" font-size="9.00">client007</text>
<text text-anchor="middle" x="1196" y="-509.9" font-family="Times Roman,serif" font-size="9.00">316.63ms</text>
</g>
<!-- node_26&#45;&gt;node_25 -->
<g id="edge44" class="edge"><title>node_26&#45;&gt;node_25</title>
<path fill="none" stroke="black" d="M1081.58,-625.316C1100.41,-609.794 1124.28,-590.12 1145.34,-572.761"/>
<polygon fill="black" stroke="black" points="1147.77,-575.296 1153.26,-566.235 1143.31,-569.895 1147.77,-575.296"/>
</g>
<!-- node_19 -->
<g id="node39" class="node"><title>node_19</title>
<ellipse fill="none" stroke="black" cx="1048" cy="-409" rx="38.8909" ry="42.4264"/>
<text text-anchor="middle" x="1048" y="-426.9" font-family="Times Roman,serif" font-size="9.00">bestNode</text>
<text text-anchor="middle" x="1048" y="-413.9" font-family="Times Roman,serif" font-size="9.00">DFSClient</text>
<text text-anchor="middle" x="1048" y="-400.9" font-family="Times Roman,serif" font-size="9.00">client007</text>
<text text-anchor="middle" x="1048" y="-387.9" font-family="Times Roman,serif" font-size="9.00">0.01ms</text>
</g>
<!-- node_20&#45;&gt;node_19 -->
<g id="edge30" class="edge"><title>node_20&#45;&gt;node_19</title>
<path fill="none" stroke="black" d="M1048,-488.33C1048,-479.836 1048,-470.818 1048,-462.025"/>
<polygon fill="black" stroke="black" points="1051.5,-461.852 1048,-451.852 1044.5,-461.852 1051.5,-461.852"/>
</g>
<!-- node_24 -->
<g id="node42" class="node"><title>node_24</title>
<ellipse fill="none" stroke="black" cx="1196" cy="-409" rx="53.9477" ry="42.4264"/>
<text text-anchor="middle" x="1196" y="-426.9" font-family="Times Roman,serif" font-size="9.00">newBlockReader</text>
<text text-anchor="middle" x="1196" y="-413.9" font-family="Times Roman,serif" font-size="9.00">DFSClient</text>
<text text-anchor="middle" x="1196" y="-400.9" font-family="Times Roman,serif" font-size="9.00">client007</text>
<text text-anchor="middle" x="1196" y="-387.9" font-family="Times Roman,serif" font-size="9.00">109.93ms</text>
</g>
<!-- node_25&#45;&gt;node_24 -->
<g id="edge40" class="edge"><title>node_25&#45;&gt;node_24</title>
<path fill="none" stroke="black" d="M1196,-488.33C1196,-479.836 1196,-470.818 1196,-462.025"/>
<polygon fill="black" stroke="black" points="1199.5,-461.852 1196,-451.852 1192.5,-461.852 1199.5,-461.852"/>
</g>
<!-- node_32 -->
<g id="node43" class="node"><title>node_32</title>
<ellipse fill="none" stroke="black" cx="1196" cy="-287" rx="43.8406" ry="42.4264"/>
<text text-anchor="middle" x="1196" y="-304.9" font-family="Times Roman,serif" font-size="9.00">readBlock</text>
<text text-anchor="middle" x="1196" y="-291.9" font-family="Times Roman,serif" font-size="9.00">Datanode</text>
<text text-anchor="middle" x="1196" y="-278.9" font-family="Times Roman,serif" font-size="9.00">datanode034</text>
<text text-anchor="middle" x="1196" y="-265.9" font-family="Times Roman,serif" font-size="9.00">8203.81ms</text>
</g>
<!-- node_24&#45;&gt;node_32 -->
<g id="edge38" class="edge"><title>node_24&#45;&gt;node_32</title>
<path fill="none" stroke="black" d="M1196,-366.33C1196,-357.836 1196,-348.818 1196,-340.025"/>
<polygon fill="black" stroke="black" points="1199.5,-339.852 1196,-329.852 1192.5,-339.852 1199.5,-339.852"/>
</g>
<!-- node_23 -->
<g id="node44" class="node"><title>node_23</title>
<ellipse fill="none" stroke="black" cx="1131" cy="-165" rx="67.1751" ry="42.4264"/>
<text text-anchor="middle" x="1131" y="-182.9" font-family="Times Roman,serif" font-size="9.00">OP: new blockSender</text>
<text text-anchor="middle" x="1131" y="-169.9" font-family="Times Roman,serif" font-size="9.00">Datanode</text>
<text text-anchor="middle" x="1131" y="-156.9" font-family="Times Roman,serif" font-size="9.00">datanode034</text>
<text text-anchor="middle" x="1131" y="-143.9" font-family="Times Roman,serif" font-size="9.00">1.01ms</text>
</g>
<!-- node_32&#45;&gt;node_23 -->
<g id="edge34" class="edge"><title>node_32&#45;&gt;node_23</title>
<path fill="none" stroke="black" d="M1175.79,-249.067C1169.97,-238.139 1163.53,-226.052 1157.39,-214.532"/>
<polygon fill="black" stroke="black" points="1160.34,-212.627 1152.55,-205.447 1154.16,-215.918 1160.34,-212.627"/>
</g>
<!-- node_27 -->
<g id="node45" class="node"><title>node_27</title>
<ellipse fill="none" stroke="black" cx="1260" cy="-165" rx="43.8406" ry="42.4264"/>
<text text-anchor="middle" x="1260" y="-182.9" font-family="Times Roman,serif" font-size="9.00">sendBlock</text>
<text text-anchor="middle" x="1260" y="-169.9" font-family="Times Roman,serif" font-size="9.00">Datanode</text>
<text text-anchor="middle" x="1260" y="-156.9" font-family="Times Roman,serif" font-size="9.00">datanode034</text>
<text text-anchor="middle" x="1260" y="-143.9" font-family="Times Roman,serif" font-size="9.00">7925.63ms</text>
</g>
<!-- node_32&#45;&gt;node_27 -->
<g id="edge36" class="edge"><title>node_32&#45;&gt;node_27</title>
<path fill="none" stroke="black" d="M1215.9,-249.067C1221.98,-237.473 1228.75,-224.576 1235.12,-212.433"/>
<polygon fill="black" stroke="black" points="1238.35,-213.811 1239.89,-203.33 1232.15,-210.559 1238.35,-213.811"/>
</g>
<!-- node_28 -->
<g id="node46" class="node"><title>node_28</title>
<ellipse fill="none" stroke="black" cx="1260" cy="-43" rx="56.0679" ry="42.4264"/>
<text text-anchor="middle" x="1260" y="-60.9" font-family="Times Roman,serif" font-size="9.00">OP: receive block</text>
<text text-anchor="middle" x="1260" y="-47.9" font-family="Times Roman,serif" font-size="9.00">DFSClient</text>
<text text-anchor="middle" x="1260" y="-34.9" font-family="Times Roman,serif" font-size="9.00">client007</text>
<text text-anchor="middle" x="1260" y="-21.9" font-family="Times Roman,serif" font-size="9.00">8098.31ms</text>
</g>
<!-- node_27&#45;&gt;node_28 -->
<g id="edge32" class="edge"><title>node_27&#45;&gt;node_28</title>
<path fill="none" stroke="black" d="M1260,-122.33C1260,-113.836 1260,-104.818 1260,-96.0255"/>
<polygon fill="black" stroke="black" points="1263.5,-95.8518 1260,-85.8518 1256.5,-95.8518 1263.5,-95.8518"/>
</g>
<!-- node_31 -->
<g id="node55" class="node"><title>node_31</title>
<ellipse fill="none" stroke="black" cx="1343" cy="-531" rx="53.033" ry="42.4264"/>
<text text-anchor="middle" x="1343" y="-548.9" font-family="Times Roman,serif" font-size="9.00">verifiedByClient</text>
<text text-anchor="middle" x="1343" y="-535.9" font-family="Times Roman,serif" font-size="9.00">datanode</text>
<text text-anchor="middle" x="1343" y="-522.9" font-family="Times Roman,serif" font-size="9.00">datanode034</text>
<text text-anchor="middle" x="1343" y="-509.9" font-family="Times Roman,serif" font-size="9.00">0.09ms</text>
</g>
<!-- node_29&#45;&gt;node_31 -->
<g id="edge46" class="edge"><title>node_29&#45;&gt;node_31</title>
<path fill="none" stroke="black" d="M1274.46,-619.016C1284.93,-605.578 1297.1,-589.948 1308.25,-575.621"/>
<polygon fill="black" stroke="black" points="1311.3,-577.402 1314.69,-567.361 1305.78,-573.101 1311.3,-577.402"/>
</g>
</g>
</svg>
