<?xml version="1.0" encoding="UTF-8" standalone="no"?>
<!DOCTYPE svg PUBLIC "-//W3C//DTD SVG 1.1//EN"
 "http://www.w3.org/Graphics/SVG/1.1/DTD/svg11.dtd">
<!-- Generated by graphviz version 2.26.0 (20091210.2329)
 -->
<!-- Title: G Pages: 1 -->
<svg width="2275pt" height="1314pt"
 viewBox="0.00 0.00 2275.00 1314.00" xmlns="http://www.w3.org/2000/svg" xmlns:xlink="http://www.w3.org/1999/xlink">
<g id="graph1" class="graph" transform="scale(1 1) rotate(0) translate(4 1310)">
<title>G</title>
<polygon fill="white" stroke="white" points="-4,5 -4,-1310 2272,-1310 2272,5 -4,5"/>
<!-- node_46 -->
<g id="node1" class="node"><title>node_46</title>
<ellipse fill="none" stroke="black" cx="369" cy="-1263" rx="60.1041" ry="42.4264"/>
<text text-anchor="middle" x="369" y="-1280.9" font-family="Times Roman,serif" font-size="9.00">fs &#45;copyFromLocal</text>
<text text-anchor="middle" x="369" y="-1267.9" font-family="Times Roman,serif" font-size="9.00">User</text>
<text text-anchor="middle" x="369" y="-1254.9" font-family="Times Roman,serif" font-size="9.00">client001</text>
<text text-anchor="middle" x="369" y="-1241.9" font-family="Times Roman,serif" font-size="9.00">1188.33ms</text>
</g>
<!-- node_1 -->
<g id="node2" class="node"><title>node_1</title>
<ellipse fill="none" stroke="black" cx="53" cy="-1141" rx="53.033" ry="42.4264"/>
<text text-anchor="middle" x="53" y="-1158.9" font-family="Times Roman,serif" font-size="9.00">RPC:getFileInfo</text>
<text text-anchor="middle" x="53" y="-1145.9" font-family="Times Roman,serif" font-size="9.00">RPC Client</text>
<text text-anchor="middle" x="53" y="-1132.9" font-family="Times Roman,serif" font-size="9.00">client001</text>
<text text-anchor="middle" x="53" y="-1119.9" font-family="Times Roman,serif" font-size="9.00">9.14ms</text>
</g>
<!-- node_46&#45;&gt;node_1 -->
<g id="edge84" class="edge"><title>node_46&#45;&gt;node_1</title>
<path fill="none" stroke="black" d="M316.109,-1242.58C259.189,-1220.6 168.961,-1185.77 110.364,-1163.15"/>
<polygon fill="black" stroke="black" points="111.473,-1159.82 100.884,-1159.49 108.952,-1166.35 111.473,-1159.82"/>
</g>
<!-- node_3 -->
<g id="node5" class="node"><title>node_3</title>
<ellipse fill="none" stroke="black" cx="214" cy="-1141" rx="39.8075" ry="42.4264"/>
<text text-anchor="middle" x="214" y="-1158.9" font-family="Times Roman,serif" font-size="9.00">RPC:create</text>
<text text-anchor="middle" x="214" y="-1145.9" font-family="Times Roman,serif" font-size="9.00">RPC Client</text>
<text text-anchor="middle" x="214" y="-1132.9" font-family="Times Roman,serif" font-size="9.00">client001</text>
<text text-anchor="middle" x="214" y="-1119.9" font-family="Times Roman,serif" font-size="9.00">30.73ms</text>
</g>
<!-- node_46&#45;&gt;node_3 -->
<g id="edge86" class="edge"><title>node_46&#45;&gt;node_3</title>
<path fill="none" stroke="black" d="M328.68,-1231.26C305.832,-1213.28 277.334,-1190.85 254.463,-1172.85"/>
<polygon fill="black" stroke="black" points="256.334,-1169.87 246.312,-1166.43 252.005,-1175.37 256.334,-1169.87"/>
</g>
<!-- node_12 -->
<g id="node8" class="node"><title>node_12</title>
<ellipse fill="none" stroke="black" cx="369" cy="-1141" rx="72.1249" ry="42.4264"/>
<text text-anchor="middle" x="369" y="-1158.9" font-family="Times Roman,serif" font-size="9.00">nextBlockOutputStream</text>
<text text-anchor="middle" x="369" y="-1145.9" font-family="Times Roman,serif" font-size="9.00">DFSClient</text>
<text text-anchor="middle" x="369" y="-1132.9" font-family="Times Roman,serif" font-size="9.00">client001</text>
<text text-anchor="middle" x="369" y="-1119.9" font-family="Times Roman,serif" font-size="9.00">75.02ms</text>
</g>
<!-- node_46&#45;&gt;node_12 -->
<g id="edge88" class="edge"><title>node_46&#45;&gt;node_12</title>
<path fill="none" stroke="black" d="M369,-1220.33C369,-1211.84 369,-1202.82 369,-1194.03"/>
<polygon fill="black" stroke="black" points="372.5,-1193.85 369,-1183.85 365.5,-1193.85 372.5,-1193.85"/>
</g>
<!-- node_13 -->
<g id="node31" class="node"><title>node_13</title>
<ellipse fill="none" stroke="black" cx="521" cy="-1141" rx="50.2046" ry="42.4264"/>
<text text-anchor="middle" x="521" y="-1158.9" font-family="Times Roman,serif" font-size="9.00">OP: send block</text>
<text text-anchor="middle" x="521" y="-1145.9" font-family="Times Roman,serif" font-size="9.00">DFSClient</text>
<text text-anchor="middle" x="521" y="-1132.9" font-family="Times Roman,serif" font-size="9.00">client001</text>
<text text-anchor="middle" x="521" y="-1119.9" font-family="Times Roman,serif" font-size="9.00">911.43ms</text>
</g>
<!-- node_46&#45;&gt;node_13 -->
<g id="edge90" class="edge"><title>node_46&#45;&gt;node_13</title>
<path fill="none" stroke="black" d="M408.936,-1230.95C429.683,-1214.29 455.097,-1193.9 476.475,-1176.74"/>
<polygon fill="black" stroke="black" points="478.845,-1179.32 484.453,-1170.33 474.464,-1173.86 478.845,-1179.32"/>
</g>
<!-- node_45 -->
<g id="node38" class="node"><title>node_45</title>
<ellipse fill="none" stroke="black" cx="1358" cy="-1141" rx="72.1249" ry="42.4264"/>
<text text-anchor="middle" x="1358" y="-1158.9" font-family="Times Roman,serif" font-size="9.00">nextBlockOutputStream</text>
<text text-anchor="middle" x="1358" y="-1145.9" font-family="Times Roman,serif" font-size="9.00">DFSClient</text>
<text text-anchor="middle" x="1358" y="-1132.9" font-family="Times Roman,serif" font-size="9.00">client001</text>
<text text-anchor="middle" x="1358" y="-1119.9" font-family="Times Roman,serif" font-size="9.00">58.39ms</text>
</g>
<!-- node_46&#45;&gt;node_45 -->
<g id="edge92" class="edge"><title>node_46&#45;&gt;node_45</title>
<path fill="none" stroke="black" d="M428.271,-1255.69C597.665,-1234.79 1084.08,-1174.79 1277.39,-1150.94"/>
<polygon fill="black" stroke="black" points="1277.98,-1154.4 1287.48,-1149.7 1277.13,-1147.45 1277.98,-1154.4"/>
</g>
<!-- node_0 -->
<g id="node3" class="node"><title>node_0</title>
<ellipse fill="none" stroke="black" cx="46" cy="-1019" rx="39.0967" ry="42.4264"/>
<text text-anchor="middle" x="46" y="-1036.9" font-family="Times Roman,serif" font-size="9.00">getFileInfo</text>
<text text-anchor="middle" x="46" y="-1023.9" font-family="Times Roman,serif" font-size="9.00">Namenode</text>
<text text-anchor="middle" x="46" y="-1010.9" font-family="Times Roman,serif" font-size="9.00">namenode</text>
<text text-anchor="middle" x="46" y="-997.9" font-family="Times Roman,serif" font-size="9.00">1.46ms</text>
</g>
<!-- node_1&#45;&gt;node_0 -->
<g id="edge2" class="edge"><title>node_1&#45;&gt;node_0</title>
<path fill="none" stroke="black" d="M50.5517,-1098.33C50.0533,-1089.64 49.5235,-1080.41 49.0082,-1071.43"/>
<polygon fill="black" stroke="black" points="52.5022,-1071.22 48.4351,-1061.44 45.5137,-1071.62 52.5022,-1071.22"/>
</g>
<!-- node_2 -->
<g id="node6" class="node"><title>node_2</title>
<ellipse fill="none" stroke="black" cx="142" cy="-1019" rx="38.8909" ry="42.4264"/>
<text text-anchor="middle" x="142" y="-1036.9" font-family="Times Roman,serif" font-size="9.00">create</text>
<text text-anchor="middle" x="142" y="-1023.9" font-family="Times Roman,serif" font-size="9.00">Namenode</text>
<text text-anchor="middle" x="142" y="-1010.9" font-family="Times Roman,serif" font-size="9.00">namenode</text>
<text text-anchor="middle" x="142" y="-997.9" font-family="Times Roman,serif" font-size="9.00">28.61ms</text>
</g>
<!-- node_3&#45;&gt;node_2 -->
<g id="edge4" class="edge"><title>node_3&#45;&gt;node_2</title>
<path fill="none" stroke="black" d="M192.593,-1104.73C184.976,-1091.82 176.31,-1077.14 168.329,-1063.61"/>
<polygon fill="black" stroke="black" points="171.298,-1061.76 163.201,-1054.92 165.269,-1065.31 171.298,-1061.76"/>
</g>
<!-- node_5 -->
<g id="node9" class="node"><title>node_5</title>
<ellipse fill="none" stroke="black" cx="248" cy="-1019" rx="48.9975" ry="42.4264"/>
<text text-anchor="middle" x="248" y="-1036.9" font-family="Times Roman,serif" font-size="9.00">RPC:addBlock</text>
<text text-anchor="middle" x="248" y="-1023.9" font-family="Times Roman,serif" font-size="9.00">RPC Client</text>
<text text-anchor="middle" x="248" y="-1010.9" font-family="Times Roman,serif" font-size="9.00">client001</text>
<text text-anchor="middle" x="248" y="-997.9" font-family="Times Roman,serif" font-size="9.00">6.26ms</text>
</g>
<!-- node_12&#45;&gt;node_5 -->
<g id="edge24" class="edge"><title>node_12&#45;&gt;node_5</title>
<path fill="none" stroke="black" d="M332.368,-1104.06C318.152,-1089.73 301.842,-1073.29 287.375,-1058.7"/>
<polygon fill="black" stroke="black" points="289.526,-1055.9 279.999,-1051.26 284.556,-1060.83 289.526,-1055.9"/>
</g>
<!-- node_11 -->
<g id="node12" class="node"><title>node_11</title>
<ellipse fill="none" stroke="black" cx="390" cy="-1019" rx="75.1594" ry="42.4264"/>
<text text-anchor="middle" x="390" y="-1036.9" font-family="Times Roman,serif" font-size="9.00">createBlockOutputStream</text>
<text text-anchor="middle" x="390" y="-1023.9" font-family="Times Roman,serif" font-size="9.00">DFSClient</text>
<text text-anchor="middle" x="390" y="-1010.9" font-family="Times Roman,serif" font-size="9.00">client001</text>
<text text-anchor="middle" x="390" y="-997.9" font-family="Times Roman,serif" font-size="9.00">68.41ms</text>
</g>
<!-- node_12&#45;&gt;node_11 -->
<g id="edge26" class="edge"><title>node_12&#45;&gt;node_11</title>
<path fill="none" stroke="black" d="M376.286,-1098.67C377.783,-1089.97 379.378,-1080.71 380.929,-1071.7"/>
<polygon fill="black" stroke="black" points="384.409,-1072.11 382.656,-1061.67 377.51,-1070.93 384.409,-1072.11"/>
</g>
<!-- node_4 -->
<g id="node10" class="node"><title>node_4</title>
<ellipse fill="none" stroke="black" cx="248" cy="-897" rx="38.8909" ry="42.4264"/>
<text text-anchor="middle" x="248" y="-914.9" font-family="Times Roman,serif" font-size="9.00">addBlock</text>
<text text-anchor="middle" x="248" y="-901.9" font-family="Times Roman,serif" font-size="9.00">Namenode</text>
<text text-anchor="middle" x="248" y="-888.9" font-family="Times Roman,serif" font-size="9.00">namenode</text>
<text text-anchor="middle" x="248" y="-875.9" font-family="Times Roman,serif" font-size="9.00">1.94ms</text>
</g>
<!-- node_5&#45;&gt;node_4 -->
<g id="edge6" class="edge"><title>node_5&#45;&gt;node_4</title>
<path fill="none" stroke="black" d="M248,-976.33C248,-967.836 248,-958.818 248,-950.025"/>
<polygon fill="black" stroke="black" points="251.5,-949.852 248,-939.852 244.5,-949.852 251.5,-949.852"/>
</g>
<!-- node_19 -->
<g id="node13" class="node"><title>node_19</title>
<ellipse fill="none" stroke="black" cx="390" cy="-897" rx="43.8406" ry="42.4264"/>
<text text-anchor="middle" x="390" y="-914.9" font-family="Times Roman,serif" font-size="9.00">writeBlock</text>
<text text-anchor="middle" x="390" y="-901.9" font-family="Times Roman,serif" font-size="9.00">Datanode</text>
<text text-anchor="middle" x="390" y="-888.9" font-family="Times Roman,serif" font-size="9.00">datanode040</text>
<text text-anchor="middle" x="390" y="-875.9" font-family="Times Roman,serif" font-size="9.00">957.12ms</text>
</g>
<!-- node_11&#45;&gt;node_19 -->
<g id="edge22" class="edge"><title>node_11&#45;&gt;node_19</title>
<path fill="none" stroke="black" d="M390,-976.33C390,-967.836 390,-958.818 390,-950.025"/>
<polygon fill="black" stroke="black" points="393.5,-949.852 390,-939.852 386.5,-949.852 393.5,-949.852"/>
</g>
<!-- node_10 -->
<g id="node14" class="node"><title>node_10</title>
<ellipse fill="none" stroke="black" cx="390" cy="-775" rx="72.1249" ry="42.4264"/>
<text text-anchor="middle" x="390" y="-792.9" font-family="Times Roman,serif" font-size="9.00">OP: new BlockReceiver</text>
<text text-anchor="middle" x="390" y="-779.9" font-family="Times Roman,serif" font-size="9.00">Datanode</text>
<text text-anchor="middle" x="390" y="-766.9" font-family="Times Roman,serif" font-size="9.00">datanode040</text>
<text text-anchor="middle" x="390" y="-753.9" font-family="Times Roman,serif" font-size="9.00">32.49ms</text>
</g>
<!-- node_19&#45;&gt;node_10 -->
<g id="edge20" class="edge"><title>node_19&#45;&gt;node_10</title>
<path fill="none" stroke="black" d="M390,-854.33C390,-845.836 390,-836.818 390,-828.025"/>
<polygon fill="black" stroke="black" points="393.5,-827.852 390,-817.852 386.5,-827.852 393.5,-827.852"/>
</g>
<!-- node_9 -->
<g id="node15" class="node"><title>node_9</title>
<ellipse fill="none" stroke="black" cx="390" cy="-653" rx="79.9031" ry="42.4264"/>
<text text-anchor="middle" x="390" y="-670.9" font-family="Times Roman,serif" font-size="9.00">OP: connect next Datanode</text>
<text text-anchor="middle" x="390" y="-657.9" font-family="Times Roman,serif" font-size="9.00">Datanode</text>
<text text-anchor="middle" x="390" y="-644.9" font-family="Times Roman,serif" font-size="9.00">datanode040</text>
<text text-anchor="middle" x="390" y="-631.9" font-family="Times Roman,serif" font-size="9.00">24.27ms</text>
</g>
<!-- node_10&#45;&gt;node_9 -->
<g id="edge18" class="edge"><title>node_10&#45;&gt;node_9</title>
<path fill="none" stroke="black" d="M390,-732.33C390,-723.836 390,-714.818 390,-706.025"/>
<polygon fill="black" stroke="black" points="393.5,-705.852 390,-695.852 386.5,-705.852 393.5,-705.852"/>
</g>
<!-- node_17 -->
<g id="node16" class="node"><title>node_17</title>
<ellipse fill="none" stroke="black" cx="390" cy="-531" rx="43.8406" ry="42.4264"/>
<text text-anchor="middle" x="390" y="-548.9" font-family="Times Roman,serif" font-size="9.00">writeBlock</text>
<text text-anchor="middle" x="390" y="-535.9" font-family="Times Roman,serif" font-size="9.00">Datanode</text>
<text text-anchor="middle" x="390" y="-522.9" font-family="Times Roman,serif" font-size="9.00">datanode020</text>
<text text-anchor="middle" x="390" y="-509.9" font-family="Times Roman,serif" font-size="9.00">944.52ms</text>
</g>
<!-- node_9&#45;&gt;node_17 -->
<g id="edge16" class="edge"><title>node_9&#45;&gt;node_17</title>
<path fill="none" stroke="black" d="M390,-610.33C390,-601.836 390,-592.818 390,-584.025"/>
<polygon fill="black" stroke="black" points="393.5,-583.852 390,-573.852 386.5,-583.852 393.5,-583.852"/>
</g>
<!-- node_7 -->
<g id="node17" class="node"><title>node_7</title>
<ellipse fill="none" stroke="black" cx="390" cy="-409" rx="72.1249" ry="42.4264"/>
<text text-anchor="middle" x="390" y="-426.9" font-family="Times Roman,serif" font-size="9.00">OP: new BlockReceiver</text>
<text text-anchor="middle" x="390" y="-413.9" font-family="Times Roman,serif" font-size="9.00">Datanode</text>
<text text-anchor="middle" x="390" y="-400.9" font-family="Times Roman,serif" font-size="9.00">datanode020</text>
<text text-anchor="middle" x="390" y="-387.9" font-family="Times Roman,serif" font-size="9.00">17.82ms</text>
</g>
<!-- node_17&#45;&gt;node_7 -->
<g id="edge14" class="edge"><title>node_17&#45;&gt;node_7</title>
<path fill="none" stroke="black" d="M390,-488.33C390,-479.836 390,-470.818 390,-462.025"/>
<polygon fill="black" stroke="black" points="393.5,-461.852 390,-451.852 386.5,-461.852 393.5,-461.852"/>
</g>
<!-- node_6 -->
<g id="node18" class="node"><title>node_6</title>
<ellipse fill="none" stroke="black" cx="390" cy="-287" rx="79.9031" ry="42.4264"/>
<text text-anchor="middle" x="390" y="-304.9" font-family="Times Roman,serif" font-size="9.00">OP: connect next Datanode</text>
<text text-anchor="middle" x="390" y="-291.9" font-family="Times Roman,serif" font-size="9.00">Datanode</text>
<text text-anchor="middle" x="390" y="-278.9" font-family="Times Roman,serif" font-size="9.00">datanode020</text>
<text text-anchor="middle" x="390" y="-265.9" font-family="Times Roman,serif" font-size="9.00">10.19ms</text>
</g>
<!-- node_7&#45;&gt;node_6 -->
<g id="edge12" class="edge"><title>node_7&#45;&gt;node_6</title>
<path fill="none" stroke="black" d="M390,-366.33C390,-357.836 390,-348.818 390,-340.025"/>
<polygon fill="black" stroke="black" points="393.5,-339.852 390,-329.852 386.5,-339.852 393.5,-339.852"/>
</g>
<!-- node_15 -->
<g id="node19" class="node"><title>node_15</title>
<ellipse fill="none" stroke="black" cx="390" cy="-165" rx="43.8406" ry="42.4264"/>
<text text-anchor="middle" x="390" y="-182.9" font-family="Times Roman,serif" font-size="9.00">writeBlock</text>
<text text-anchor="middle" x="390" y="-169.9" font-family="Times Roman,serif" font-size="9.00">Datanode</text>
<text text-anchor="middle" x="390" y="-156.9" font-family="Times Roman,serif" font-size="9.00">datanode016</text>
<text text-anchor="middle" x="390" y="-143.9" font-family="Times Roman,serif" font-size="9.00">933.06ms</text>
</g>
<!-- node_6&#45;&gt;node_15 -->
<g id="edge10" class="edge"><title>node_6&#45;&gt;node_15</title>
<path fill="none" stroke="black" d="M390,-244.33C390,-235.836 390,-226.818 390,-218.025"/>
<polygon fill="black" stroke="black" points="393.5,-217.852 390,-207.852 386.5,-217.852 393.5,-217.852"/>
</g>
<!-- node_8 -->
<g id="node20" class="node"><title>node_8</title>
<ellipse fill="none" stroke="black" cx="390" cy="-43" rx="72.1249" ry="42.4264"/>
<text text-anchor="middle" x="390" y="-60.9" font-family="Times Roman,serif" font-size="9.00">OP: new BlockReceiver</text>
<text text-anchor="middle" x="390" y="-47.9" font-family="Times Roman,serif" font-size="9.00">Datanode</text>
<text text-anchor="middle" x="390" y="-34.9" font-family="Times Roman,serif" font-size="9.00">datanode016</text>
<text text-anchor="middle" x="390" y="-21.9" font-family="Times Roman,serif" font-size="9.00">3.60ms</text>
</g>
<!-- node_15&#45;&gt;node_8 -->
<g id="edge8" class="edge"><title>node_15&#45;&gt;node_8</title>
<path fill="none" stroke="black" d="M390,-122.33C390,-113.836 390,-104.818 390,-96.0255"/>
<polygon fill="black" stroke="black" points="393.5,-95.8518 390,-85.8518 386.5,-95.8518 393.5,-95.8518"/>
</g>
<!-- node_18 -->
<g id="node32" class="node"><title>node_18</title>
<ellipse fill="none" stroke="black" cx="527" cy="-1019" rx="43.8406" ry="42.4264"/>
<text text-anchor="middle" x="527" y="-1036.9" font-family="Times Roman,serif" font-size="9.00">receiveBlock</text>
<text text-anchor="middle" x="527" y="-1023.9" font-family="Times Roman,serif" font-size="9.00">Datanode</text>
<text text-anchor="middle" x="527" y="-1010.9" font-family="Times Roman,serif" font-size="9.00">datanode040</text>
<text text-anchor="middle" x="527" y="-997.9" font-family="Times Roman,serif" font-size="9.00">921.69ms</text>
</g>
<!-- node_13&#45;&gt;node_18 -->
<g id="edge32" class="edge"><title>node_13&#45;&gt;node_18</title>
<path fill="none" stroke="black" d="M523.099,-1098.33C523.516,-1089.84 523.96,-1080.82 524.392,-1072.03"/>
<polygon fill="black" stroke="black" points="527.897,-1072.01 524.893,-1061.85 520.905,-1071.67 527.897,-1072.01"/>
</g>
<!-- node_16 -->
<g id="node33" class="node"><title>node_16</title>
<ellipse fill="none" stroke="black" cx="527" cy="-897" rx="43.8406" ry="42.4264"/>
<text text-anchor="middle" x="527" y="-914.9" font-family="Times Roman,serif" font-size="9.00">receiveBlock</text>
<text text-anchor="middle" x="527" y="-901.9" font-family="Times Roman,serif" font-size="9.00">Datanode</text>
<text text-anchor="middle" x="527" y="-888.9" font-family="Times Roman,serif" font-size="9.00">datanode020</text>
<text text-anchor="middle" x="527" y="-875.9" font-family="Times Roman,serif" font-size="9.00">916.95ms</text>
</g>
<!-- node_18&#45;&gt;node_16 -->
<g id="edge30" class="edge"><title>node_18&#45;&gt;node_16</title>
<path fill="none" stroke="black" d="M527,-976.33C527,-967.836 527,-958.818 527,-950.025"/>
<polygon fill="black" stroke="black" points="530.5,-949.852 527,-939.852 523.5,-949.852 530.5,-949.852"/>
</g>
<!-- node_14 -->
<g id="node34" class="node"><title>node_14</title>
<ellipse fill="none" stroke="black" cx="527" cy="-775" rx="43.8406" ry="42.4264"/>
<text text-anchor="middle" x="527" y="-792.9" font-family="Times Roman,serif" font-size="9.00">receiveBlock</text>
<text text-anchor="middle" x="527" y="-779.9" font-family="Times Roman,serif" font-size="9.00">Datanode</text>
<text text-anchor="middle" x="527" y="-766.9" font-family="Times Roman,serif" font-size="9.00">datanode016</text>
<text text-anchor="middle" x="527" y="-753.9" font-family="Times Roman,serif" font-size="9.00">911.50ms</text>
</g>
<!-- node_16&#45;&gt;node_14 -->
<g id="edge28" class="edge"><title>node_16&#45;&gt;node_14</title>
<path fill="none" stroke="black" d="M527,-854.33C527,-845.836 527,-836.818 527,-828.025"/>
<polygon fill="black" stroke="black" points="530.5,-827.852 527,-817.852 523.5,-827.852 530.5,-827.852"/>
</g>
<!-- node_21 -->
<g id="node39" class="node"><title>node_21</title>
<ellipse fill="none" stroke="black" cx="638" cy="-1019" rx="48.9975" ry="42.4264"/>
<text text-anchor="middle" x="638" y="-1036.9" font-family="Times Roman,serif" font-size="9.00">RPC:addBlock</text>
<text text-anchor="middle" x="638" y="-1023.9" font-family="Times Roman,serif" font-size="9.00">RPC Client</text>
<text text-anchor="middle" x="638" y="-1010.9" font-family="Times Roman,serif" font-size="9.00">client001</text>
<text text-anchor="middle" x="638" y="-997.9" font-family="Times Roman,serif" font-size="9.00">2.15ms</text>
</g>
<!-- node_45&#45;&gt;node_21 -->
<g id="edge60" class="edge"><title>node_45&#45;&gt;node_21</title>
<path fill="none" stroke="black" d="M1286.17,-1137.09C1137.71,-1128.26 802.08,-1104.17 696,-1062 690.977,-1060 686,-1057.46 681.196,-1054.61"/>
<polygon fill="black" stroke="black" points="683.072,-1051.65 672.765,-1049.2 679.291,-1057.54 683.072,-1051.65"/>
</g>
<!-- node_22 -->
<g id="node42" class="node"><title>node_22</title>
<ellipse fill="none" stroke="black" cx="780" cy="-1019" rx="75.1594" ry="42.4264"/>
<text text-anchor="middle" x="780" y="-1036.9" font-family="Times Roman,serif" font-size="9.00">createBlockOutputStream</text>
<text text-anchor="middle" x="780" y="-1023.9" font-family="Times Roman,serif" font-size="9.00">DFSClient</text>
<text text-anchor="middle" x="780" y="-1010.9" font-family="Times Roman,serif" font-size="9.00">client001</text>
<text text-anchor="middle" x="780" y="-997.9" font-family="Times Roman,serif" font-size="9.00">2.74ms</text>
</g>
<!-- node_45&#45;&gt;node_22 -->
<g id="edge62" class="edge"><title>node_45&#45;&gt;node_22</title>
<path fill="none" stroke="black" d="M1285.99,-1136.59C1188.31,-1129.02 1009.3,-1109.48 864,-1062 856.934,-1059.69 849.734,-1056.85 842.669,-1053.74"/>
<polygon fill="black" stroke="black" points="843.692,-1050.35 833.145,-1049.35 840.763,-1056.71 843.692,-1050.35"/>
</g>
<!-- node_24 -->
<g id="node43" class="node"><title>node_24</title>
<ellipse fill="none" stroke="black" cx="934" cy="-1019" rx="61.0181" ry="42.4264"/>
<text text-anchor="middle" x="934" y="-1036.9" font-family="Times Roman,serif" font-size="9.00">RPC:abandonBlock</text>
<text text-anchor="middle" x="934" y="-1023.9" font-family="Times Roman,serif" font-size="9.00">RPC Client</text>
<text text-anchor="middle" x="934" y="-1010.9" font-family="Times Roman,serif" font-size="9.00">client001</text>
<text text-anchor="middle" x="934" y="-997.9" font-family="Times Roman,serif" font-size="9.00">1.75ms</text>
</g>
<!-- node_45&#45;&gt;node_24 -->
<g id="edge64" class="edge"><title>node_45&#45;&gt;node_24</title>
<path fill="none" stroke="black" d="M1287.43,-1132.27C1214.46,-1121.65 1098.24,-1100.21 1004,-1062 998.188,-1059.64 992.308,-1056.83 986.555,-1053.78"/>
<polygon fill="black" stroke="black" points="988.087,-1050.63 977.645,-1048.83 984.689,-1056.75 988.087,-1050.63"/>
</g>
<!-- node_26 -->
<g id="node46" class="node"><title>node_26</title>
<ellipse fill="none" stroke="black" cx="1062" cy="-1019" rx="48.9975" ry="42.4264"/>
<text text-anchor="middle" x="1062" y="-1036.9" font-family="Times Roman,serif" font-size="9.00">RPC:addBlock</text>
<text text-anchor="middle" x="1062" y="-1023.9" font-family="Times Roman,serif" font-size="9.00">RPC Client</text>
<text text-anchor="middle" x="1062" y="-1010.9" font-family="Times Roman,serif" font-size="9.00">client001</text>
<text text-anchor="middle" x="1062" y="-997.9" font-family="Times Roman,serif" font-size="9.00">2.53ms</text>
</g>
<!-- node_45&#45;&gt;node_26 -->
<g id="edge66" class="edge"><title>node_45&#45;&gt;node_26</title>
<path fill="none" stroke="black" d="M1291.08,-1124.91C1242.08,-1111.69 1174.86,-1090.51 1120,-1062 1115.39,-1059.61 1110.75,-1056.86 1106.22,-1053.94"/>
<polygon fill="black" stroke="black" points="1107.9,-1050.85 1097.66,-1048.15 1103.98,-1056.65 1107.9,-1050.85"/>
</g>
<!-- node_29 -->
<g id="node49" class="node"><title>node_29</title>
<ellipse fill="none" stroke="black" cx="1204" cy="-1019" rx="75.1594" ry="42.4264"/>
<text text-anchor="middle" x="1204" y="-1036.9" font-family="Times Roman,serif" font-size="9.00">createBlockOutputStream</text>
<text text-anchor="middle" x="1204" y="-1023.9" font-family="Times Roman,serif" font-size="9.00">DFSClient</text>
<text text-anchor="middle" x="1204" y="-1010.9" font-family="Times Roman,serif" font-size="9.00">client001</text>
<text text-anchor="middle" x="1204" y="-997.9" font-family="Times Roman,serif" font-size="9.00">33.11ms</text>
</g>
<!-- node_45&#45;&gt;node_29 -->
<g id="edge68" class="edge"><title>node_45&#45;&gt;node_29</title>
<path fill="none" stroke="black" d="M1314.69,-1106.69C1296.4,-1092.2 1274.95,-1075.2 1255.82,-1060.05"/>
<polygon fill="black" stroke="black" points="1257.8,-1057.15 1247.78,-1053.69 1253.45,-1062.64 1257.8,-1057.15"/>
</g>
<!-- node_33 -->
<g id="node60" class="node"><title>node_33</title>
<ellipse fill="none" stroke="black" cx="1358" cy="-1019" rx="61.0181" ry="42.4264"/>
<text text-anchor="middle" x="1358" y="-1036.9" font-family="Times Roman,serif" font-size="9.00">RPC:abandonBlock</text>
<text text-anchor="middle" x="1358" y="-1023.9" font-family="Times Roman,serif" font-size="9.00">RPC Client</text>
<text text-anchor="middle" x="1358" y="-1010.9" font-family="Times Roman,serif" font-size="9.00">client001</text>
<text text-anchor="middle" x="1358" y="-997.9" font-family="Times Roman,serif" font-size="9.00">1.30ms</text>
</g>
<!-- node_45&#45;&gt;node_33 -->
<g id="edge70" class="edge"><title>node_45&#45;&gt;node_33</title>
<path fill="none" stroke="black" d="M1358,-1098.33C1358,-1089.84 1358,-1080.82 1358,-1072.03"/>
<polygon fill="black" stroke="black" points="1361.5,-1071.85 1358,-1061.85 1354.5,-1071.85 1361.5,-1071.85"/>
</g>
<!-- node_36 -->
<g id="node63" class="node"><title>node_36</title>
<ellipse fill="none" stroke="black" cx="1486" cy="-1019" rx="48.9975" ry="42.4264"/>
<text text-anchor="middle" x="1486" y="-1036.9" font-family="Times Roman,serif" font-size="9.00">RPC:addBlock</text>
<text text-anchor="middle" x="1486" y="-1023.9" font-family="Times Roman,serif" font-size="9.00">RPC Client</text>
<text text-anchor="middle" x="1486" y="-1010.9" font-family="Times Roman,serif" font-size="9.00">client001</text>
<text text-anchor="middle" x="1486" y="-997.9" font-family="Times Roman,serif" font-size="9.00">2.14ms</text>
</g>
<!-- node_45&#45;&gt;node_36 -->
<g id="edge72" class="edge"><title>node_45&#45;&gt;node_36</title>
<path fill="none" stroke="black" d="M1396.06,-1104.73C1411.51,-1090 1429.39,-1072.95 1445.12,-1057.96"/>
<polygon fill="black" stroke="black" points="1447.82,-1060.22 1452.65,-1050.79 1443,-1055.15 1447.82,-1060.22"/>
</g>
<!-- node_37 -->
<g id="node66" class="node"><title>node_37</title>
<ellipse fill="none" stroke="black" cx="1628" cy="-1019" rx="75.1594" ry="42.4264"/>
<text text-anchor="middle" x="1628" y="-1036.9" font-family="Times Roman,serif" font-size="9.00">createBlockOutputStream</text>
<text text-anchor="middle" x="1628" y="-1023.9" font-family="Times Roman,serif" font-size="9.00">DFSClient</text>
<text text-anchor="middle" x="1628" y="-1010.9" font-family="Times Roman,serif" font-size="9.00">client001</text>
<text text-anchor="middle" x="1628" y="-997.9" font-family="Times Roman,serif" font-size="9.00">1.64ms</text>
</g>
<!-- node_45&#45;&gt;node_37 -->
<g id="edge74" class="edge"><title>node_45&#45;&gt;node_37</title>
<path fill="none" stroke="black" d="M1417.53,-1116.99C1454.27,-1101.85 1502.21,-1081.54 1544,-1062 1550.43,-1058.99 1557.09,-1055.77 1563.71,-1052.5"/>
<polygon fill="black" stroke="black" points="1565.31,-1055.61 1572.7,-1048.01 1562.19,-1049.35 1565.31,-1055.61"/>
</g>
<!-- node_39 -->
<g id="node67" class="node"><title>node_39</title>
<ellipse fill="none" stroke="black" cx="1782" cy="-1019" rx="61.0181" ry="42.4264"/>
<text text-anchor="middle" x="1782" y="-1036.9" font-family="Times Roman,serif" font-size="9.00">RPC:abandonBlock</text>
<text text-anchor="middle" x="1782" y="-1023.9" font-family="Times Roman,serif" font-size="9.00">RPC Client</text>
<text text-anchor="middle" x="1782" y="-1010.9" font-family="Times Roman,serif" font-size="9.00">client001</text>
<text text-anchor="middle" x="1782" y="-997.9" font-family="Times Roman,serif" font-size="9.00">1.26ms</text>
</g>
<!-- node_45&#45;&gt;node_39 -->
<g id="edge76" class="edge"><title>node_45&#45;&gt;node_39</title>
<path fill="none" stroke="black" d="M1428.57,-1132.27C1501.54,-1121.65 1617.76,-1100.21 1712,-1062 1717.81,-1059.64 1723.69,-1056.83 1729.45,-1053.78"/>
<polygon fill="black" stroke="black" points="1731.31,-1056.75 1738.36,-1048.83 1727.91,-1050.63 1731.31,-1056.75"/>
</g>
<!-- node_41 -->
<g id="node70" class="node"><title>node_41</title>
<ellipse fill="none" stroke="black" cx="1910" cy="-1019" rx="48.9975" ry="42.4264"/>
<text text-anchor="middle" x="1910" y="-1036.9" font-family="Times Roman,serif" font-size="9.00">RPC:addBlock</text>
<text text-anchor="middle" x="1910" y="-1023.9" font-family="Times Roman,serif" font-size="9.00">RPC Client</text>
<text text-anchor="middle" x="1910" y="-1010.9" font-family="Times Roman,serif" font-size="9.00">client001</text>
<text text-anchor="middle" x="1910" y="-997.9" font-family="Times Roman,serif" font-size="9.00">2.14ms</text>
</g>
<!-- node_45&#45;&gt;node_41 -->
<g id="edge78" class="edge"><title>node_45&#45;&gt;node_41</title>
<path fill="none" stroke="black" d="M1429.06,-1133.84C1546.83,-1121.28 1776.95,-1093.58 1852,-1062 1856.98,-1059.9 1861.93,-1057.29 1866.72,-1054.4"/>
<polygon fill="black" stroke="black" points="1868.65,-1057.32 1875.13,-1048.94 1864.84,-1051.45 1868.65,-1057.32"/>
</g>
<!-- node_42 -->
<g id="node73" class="node"><title>node_42</title>
<ellipse fill="none" stroke="black" cx="2052" cy="-1019" rx="75.1594" ry="42.4264"/>
<text text-anchor="middle" x="2052" y="-1036.9" font-family="Times Roman,serif" font-size="9.00">createBlockOutputStream</text>
<text text-anchor="middle" x="2052" y="-1023.9" font-family="Times Roman,serif" font-size="9.00">DFSClient</text>
<text text-anchor="middle" x="2052" y="-1010.9" font-family="Times Roman,serif" font-size="9.00">client001</text>
<text text-anchor="middle" x="2052" y="-997.9" font-family="Times Roman,serif" font-size="9.00">1.90ms</text>
</g>
<!-- node_45&#45;&gt;node_42 -->
<g id="edge80" class="edge"><title>node_45&#45;&gt;node_42</title>
<path fill="none" stroke="black" d="M1429.26,-1134.87C1567.84,-1122.43 1868.75,-1092.8 1968,-1062 1975.37,-1059.71 1982.87,-1056.81 1990.21,-1053.6"/>
<polygon fill="black" stroke="black" points="1991.76,-1056.74 1999.39,-1049.38 1988.84,-1050.37 1991.76,-1056.74"/>
</g>
<!-- node_44 -->
<g id="node74" class="node"><title>node_44</title>
<ellipse fill="none" stroke="black" cx="2206" cy="-1019" rx="61.0181" ry="42.4264"/>
<text text-anchor="middle" x="2206" y="-1036.9" font-family="Times Roman,serif" font-size="9.00">RPC:abandonBlock</text>
<text text-anchor="middle" x="2206" y="-1023.9" font-family="Times Roman,serif" font-size="9.00">RPC Client</text>
<text text-anchor="middle" x="2206" y="-1010.9" font-family="Times Roman,serif" font-size="9.00">client001</text>
<text text-anchor="middle" x="2206" y="-997.9" font-family="Times Roman,serif" font-size="9.00">1.17ms</text>
</g>
<!-- node_45&#45;&gt;node_44 -->
<g id="edge82" class="edge"><title>node_45&#45;&gt;node_44</title>
<path fill="none" stroke="black" d="M1429.91,-1137.8C1596.8,-1129.71 2006.1,-1105.92 2136,-1062 2142.03,-1059.96 2148.08,-1057.33 2153.97,-1054.37"/>
<polygon fill="black" stroke="black" points="2155.91,-1057.3 2163.06,-1049.48 2152.59,-1051.13 2155.91,-1057.3"/>
</g>
<!-- node_20 -->
<g id="node40" class="node"><title>node_20</title>
<ellipse fill="none" stroke="black" cx="638" cy="-897" rx="38.8909" ry="42.4264"/>
<text text-anchor="middle" x="638" y="-914.9" font-family="Times Roman,serif" font-size="9.00">addBlock</text>
<text text-anchor="middle" x="638" y="-901.9" font-family="Times Roman,serif" font-size="9.00">Namenode</text>
<text text-anchor="middle" x="638" y="-888.9" font-family="Times Roman,serif" font-size="9.00">namenode</text>
<text text-anchor="middle" x="638" y="-875.9" font-family="Times Roman,serif" font-size="9.00">0.45ms</text>
</g>
<!-- node_21&#45;&gt;node_20 -->
<g id="edge34" class="edge"><title>node_21&#45;&gt;node_20</title>
<path fill="none" stroke="black" d="M638,-976.33C638,-967.836 638,-958.818 638,-950.025"/>
<polygon fill="black" stroke="black" points="641.5,-949.852 638,-939.852 634.5,-949.852 641.5,-949.852"/>
</g>
<!-- node_23 -->
<g id="node44" class="node"><title>node_23</title>
<ellipse fill="none" stroke="black" cx="934" cy="-897" rx="48.0833" ry="42.4264"/>
<text text-anchor="middle" x="934" y="-914.9" font-family="Times Roman,serif" font-size="9.00">abandonBlock</text>
<text text-anchor="middle" x="934" y="-901.9" font-family="Times Roman,serif" font-size="9.00">Namenode</text>
<text text-anchor="middle" x="934" y="-888.9" font-family="Times Roman,serif" font-size="9.00">namenode</text>
<text text-anchor="middle" x="934" y="-875.9" font-family="Times Roman,serif" font-size="9.00">0.30ms</text>
</g>
<!-- node_24&#45;&gt;node_23 -->
<g id="edge36" class="edge"><title>node_24&#45;&gt;node_23</title>
<path fill="none" stroke="black" d="M934,-976.33C934,-967.836 934,-958.818 934,-950.025"/>
<polygon fill="black" stroke="black" points="937.5,-949.852 934,-939.852 930.5,-949.852 937.5,-949.852"/>
</g>
<!-- node_25 -->
<g id="node47" class="node"><title>node_25</title>
<ellipse fill="none" stroke="black" cx="1062" cy="-897" rx="38.8909" ry="42.4264"/>
<text text-anchor="middle" x="1062" y="-914.9" font-family="Times Roman,serif" font-size="9.00">addBlock</text>
<text text-anchor="middle" x="1062" y="-901.9" font-family="Times Roman,serif" font-size="9.00">Namenode</text>
<text text-anchor="middle" x="1062" y="-888.9" font-family="Times Roman,serif" font-size="9.00">namenode</text>
<text text-anchor="middle" x="1062" y="-875.9" font-family="Times Roman,serif" font-size="9.00">0.77ms</text>
</g>
<!-- node_26&#45;&gt;node_25 -->
<g id="edge38" class="edge"><title>node_26&#45;&gt;node_25</title>
<path fill="none" stroke="black" d="M1062,-976.33C1062,-967.836 1062,-958.818 1062,-950.025"/>
<polygon fill="black" stroke="black" points="1065.5,-949.852 1062,-939.852 1058.5,-949.852 1065.5,-949.852"/>
</g>
<!-- node_34 -->
<g id="node50" class="node"><title>node_34</title>
<ellipse fill="none" stroke="black" cx="1204" cy="-897" rx="43.8406" ry="42.4264"/>
<text text-anchor="middle" x="1204" y="-914.9" font-family="Times Roman,serif" font-size="9.00">writeBlock</text>
<text text-anchor="middle" x="1204" y="-901.9" font-family="Times Roman,serif" font-size="9.00">Datanode</text>
<text text-anchor="middle" x="1204" y="-888.9" font-family="Times Roman,serif" font-size="9.00">datanode022</text>
<text text-anchor="middle" x="1204" y="-875.9" font-family="Times Roman,serif" font-size="9.00">29.50ms</text>
</g>
<!-- node_29&#45;&gt;node_34 -->
<g id="edge48" class="edge"><title>node_29&#45;&gt;node_34</title>
<path fill="none" stroke="black" d="M1204,-976.33C1204,-967.836 1204,-958.818 1204,-950.025"/>
<polygon fill="black" stroke="black" points="1207.5,-949.852 1204,-939.852 1200.5,-949.852 1207.5,-949.852"/>
</g>
<!-- node_31 -->
<g id="node51" class="node"><title>node_31</title>
<ellipse fill="none" stroke="black" cx="1204" cy="-775" rx="72.1249" ry="42.4264"/>
<text text-anchor="middle" x="1204" y="-792.9" font-family="Times Roman,serif" font-size="9.00">OP: new BlockReceiver</text>
<text text-anchor="middle" x="1204" y="-779.9" font-family="Times Roman,serif" font-size="9.00">Datanode</text>
<text text-anchor="middle" x="1204" y="-766.9" font-family="Times Roman,serif" font-size="9.00">datanode022</text>
<text text-anchor="middle" x="1204" y="-753.9" font-family="Times Roman,serif" font-size="9.00">25.99ms</text>
</g>
<!-- node_34&#45;&gt;node_31 -->
<g id="edge46" class="edge"><title>node_34&#45;&gt;node_31</title>
<path fill="none" stroke="black" d="M1204,-854.33C1204,-845.836 1204,-836.818 1204,-828.025"/>
<polygon fill="black" stroke="black" points="1207.5,-827.852 1204,-817.852 1200.5,-827.852 1207.5,-827.852"/>
</g>
<!-- node_30 -->
<g id="node52" class="node"><title>node_30</title>
<ellipse fill="none" stroke="black" cx="1204" cy="-653" rx="79.9031" ry="42.4264"/>
<text text-anchor="middle" x="1204" y="-670.9" font-family="Times Roman,serif" font-size="9.00">OP: connect next Datanode</text>
<text text-anchor="middle" x="1204" y="-657.9" font-family="Times Roman,serif" font-size="9.00">Datanode</text>
<text text-anchor="middle" x="1204" y="-644.9" font-family="Times Roman,serif" font-size="9.00">datanode022</text>
<text text-anchor="middle" x="1204" y="-631.9" font-family="Times Roman,serif" font-size="9.00">18.02ms</text>
</g>
<!-- node_31&#45;&gt;node_30 -->
<g id="edge44" class="edge"><title>node_31&#45;&gt;node_30</title>
<path fill="none" stroke="black" d="M1204,-732.33C1204,-723.836 1204,-714.818 1204,-706.025"/>
<polygon fill="black" stroke="black" points="1207.5,-705.852 1204,-695.852 1200.5,-705.852 1207.5,-705.852"/>
</g>
<!-- node_28 -->
<g id="node53" class="node"><title>node_28</title>
<ellipse fill="none" stroke="black" cx="1204" cy="-531" rx="43.8406" ry="42.4264"/>
<text text-anchor="middle" x="1204" y="-548.9" font-family="Times Roman,serif" font-size="9.00">writeBlock</text>
<text text-anchor="middle" x="1204" y="-535.9" font-family="Times Roman,serif" font-size="9.00">Datanode</text>
<text text-anchor="middle" x="1204" y="-522.9" font-family="Times Roman,serif" font-size="9.00">datanode028</text>
<text text-anchor="middle" x="1204" y="-509.9" font-family="Times Roman,serif" font-size="9.00">11.22ms</text>
</g>
<!-- node_30&#45;&gt;node_28 -->
<g id="edge42" class="edge"><title>node_30&#45;&gt;node_28</title>
<path fill="none" stroke="black" d="M1204,-610.33C1204,-601.836 1204,-592.818 1204,-584.025"/>
<polygon fill="black" stroke="black" points="1207.5,-583.852 1204,-573.852 1200.5,-583.852 1207.5,-583.852"/>
</g>
<!-- node_27 -->
<g id="node54" class="node"><title>node_27</title>
<ellipse fill="none" stroke="black" cx="1204" cy="-409" rx="79.9031" ry="42.4264"/>
<text text-anchor="middle" x="1204" y="-426.9" font-family="Times Roman,serif" font-size="9.00">OP: connect next Datanode</text>
<text text-anchor="middle" x="1204" y="-413.9" font-family="Times Roman,serif" font-size="9.00">Datanode</text>
<text text-anchor="middle" x="1204" y="-400.9" font-family="Times Roman,serif" font-size="9.00">datanode028</text>
<text text-anchor="middle" x="1204" y="-387.9" font-family="Times Roman,serif" font-size="9.00">2.11ms</text>
</g>
<!-- node_28&#45;&gt;node_27 -->
<g id="edge40" class="edge"><title>node_28&#45;&gt;node_27</title>
<path fill="none" stroke="black" d="M1204,-488.33C1204,-479.836 1204,-470.818 1204,-462.025"/>
<polygon fill="black" stroke="black" points="1207.5,-461.852 1204,-451.852 1200.5,-461.852 1207.5,-461.852"/>
</g>
<!-- node_32 -->
<g id="node61" class="node"><title>node_32</title>
<ellipse fill="none" stroke="black" cx="1358" cy="-897" rx="48.0833" ry="42.4264"/>
<text text-anchor="middle" x="1358" y="-914.9" font-family="Times Roman,serif" font-size="9.00">abandonBlock</text>
<text text-anchor="middle" x="1358" y="-901.9" font-family="Times Roman,serif" font-size="9.00">Namenode</text>
<text text-anchor="middle" x="1358" y="-888.9" font-family="Times Roman,serif" font-size="9.00">namenode</text>
<text text-anchor="middle" x="1358" y="-875.9" font-family="Times Roman,serif" font-size="9.00">0.33ms</text>
</g>
<!-- node_33&#45;&gt;node_32 -->
<g id="edge50" class="edge"><title>node_33&#45;&gt;node_32</title>
<path fill="none" stroke="black" d="M1358,-976.33C1358,-967.836 1358,-958.818 1358,-950.025"/>
<polygon fill="black" stroke="black" points="1361.5,-949.852 1358,-939.852 1354.5,-949.852 1361.5,-949.852"/>
</g>
<!-- node_35 -->
<g id="node64" class="node"><title>node_35</title>
<ellipse fill="none" stroke="black" cx="1486" cy="-897" rx="38.8909" ry="42.4264"/>
<text text-anchor="middle" x="1486" y="-914.9" font-family="Times Roman,serif" font-size="9.00">addBlock</text>
<text text-anchor="middle" x="1486" y="-901.9" font-family="Times Roman,serif" font-size="9.00">Namenode</text>
<text text-anchor="middle" x="1486" y="-888.9" font-family="Times Roman,serif" font-size="9.00">namenode</text>
<text text-anchor="middle" x="1486" y="-875.9" font-family="Times Roman,serif" font-size="9.00">0.41ms</text>
</g>
<!-- node_36&#45;&gt;node_35 -->
<g id="edge52" class="edge"><title>node_36&#45;&gt;node_35</title>
<path fill="none" stroke="black" d="M1486,-976.33C1486,-967.836 1486,-958.818 1486,-950.025"/>
<polygon fill="black" stroke="black" points="1489.5,-949.852 1486,-939.852 1482.5,-949.852 1489.5,-949.852"/>
</g>
<!-- node_38 -->
<g id="node68" class="node"><title>node_38</title>
<ellipse fill="none" stroke="black" cx="1782" cy="-897" rx="48.0833" ry="42.4264"/>
<text text-anchor="middle" x="1782" y="-914.9" font-family="Times Roman,serif" font-size="9.00">abandonBlock</text>
<text text-anchor="middle" x="1782" y="-901.9" font-family="Times Roman,serif" font-size="9.00">Namenode</text>
<text text-anchor="middle" x="1782" y="-888.9" font-family="Times Roman,serif" font-size="9.00">namenode</text>
<text text-anchor="middle" x="1782" y="-875.9" font-family="Times Roman,serif" font-size="9.00">0.26ms</text>
</g>
<!-- node_39&#45;&gt;node_38 -->
<g id="edge54" class="edge"><title>node_39&#45;&gt;node_38</title>
<path fill="none" stroke="black" d="M1782,-976.33C1782,-967.836 1782,-958.818 1782,-950.025"/>
<polygon fill="black" stroke="black" points="1785.5,-949.852 1782,-939.852 1778.5,-949.852 1785.5,-949.852"/>
</g>
<!-- node_40 -->
<g id="node71" class="node"><title>node_40</title>
<ellipse fill="none" stroke="black" cx="1910" cy="-897" rx="38.8909" ry="42.4264"/>
<text text-anchor="middle" x="1910" y="-914.9" font-family="Times Roman,serif" font-size="9.00">addBlock</text>
<text text-anchor="middle" x="1910" y="-901.9" font-family="Times Roman,serif" font-size="9.00">Namenode</text>
<text text-anchor="middle" x="1910" y="-888.9" font-family="Times Roman,serif" font-size="9.00">namenode</text>
<text text-anchor="middle" x="1910" y="-875.9" font-family="Times Roman,serif" font-size="9.00">0.52ms</text>
</g>
<!-- node_41&#45;&gt;node_40 -->
<g id="edge56" class="edge"><title>node_41&#45;&gt;node_40</title>
<path fill="none" stroke="black" d="M1910,-976.33C1910,-967.836 1910,-958.818 1910,-950.025"/>
<polygon fill="black" stroke="black" points="1913.5,-949.852 1910,-939.852 1906.5,-949.852 1913.5,-949.852"/>
</g>
<!-- node_43 -->
<g id="node75" class="node"><title>node_43</title>
<ellipse fill="none" stroke="black" cx="2206" cy="-897" rx="48.0833" ry="42.4264"/>
<text text-anchor="middle" x="2206" y="-914.9" font-family="Times Roman,serif" font-size="9.00">abandonBlock</text>
<text text-anchor="middle" x="2206" y="-901.9" font-family="Times Roman,serif" font-size="9.00">Namenode</text>
<text text-anchor="middle" x="2206" y="-888.9" font-family="Times Roman,serif" font-size="9.00">namenode</text>
<text text-anchor="middle" x="2206" y="-875.9" font-family="Times Roman,serif" font-size="9.00">0.20ms</text>
</g>
<!-- node_44&#45;&gt;node_43 -->
<g id="edge58" class="edge"><title>node_44&#45;&gt;node_43</title>
<path fill="none" stroke="black" d="M2206,-976.33C2206,-967.836 2206,-958.818 2206,-950.025"/>
<polygon fill="black" stroke="black" points="2209.5,-949.852 2206,-939.852 2202.5,-949.852 2209.5,-949.852"/>
</g>
</g>
</svg>
